<svg width="21" height="21" viewBox="0 0 21 21" fill="none" xmlns="http://www.w3.org/2000/svg">
<g clip-path="url(#clip0_229_527)">
<path d="M0 3.5C0 3.01875 0.39375 2.625 0.875 2.625H15.75C16.2313 2.625 16.625 3.01875 16.625 3.5C16.625 3.98125 16.2313 4.375 15.75 4.375H0.875C0.39375 4.375 0 3.98125 0 3.5ZM15.75 16.625H0.875C0.39375 16.625 0 17.0188 0 17.5C0 17.9812 0.39375 18.375 0.875 18.375H15.75C16.2313 18.375 16.625 17.9812 16.625 17.5C16.625 17.0188 16.2313 16.625 15.75 16.625ZM20.125 9.625H5.25C4.76875 9.625 4.375 10.0188 4.375 10.5C4.375 10.9812 4.76875 11.375 5.25 11.375H20.125C20.6063 11.375 21 10.9812 21 10.5C21 10.0188 20.6063 9.625 20.125 9.625Z" fill="white"/>
</g>
<defs>
<clipPath id="clip0_229_527">
<rect width="21" height="21" fill="white"/>
</clipPath>
</defs>
</svg>
