<svg width="21" height="21" viewBox="0 0 21 21" fill="none" xmlns="http://www.w3.org/2000/svg">
<g clip-path="url(#clip0_238_244)">
<path d="M20.86 12.7487L19.285 7.105C18.5325 4.3925 16.2838 2.38875 13.5888 1.88125C13.5888 1.88125 13.58 1.86375 13.5713 1.86375C12.2238 0.665 10.4913 0 8.70626 0C5.25001 0 2.31001 2.35375 1.56626 5.71375L0.0612612 11.1912C-0.183739 12.3112 0.0787612 13.4575 0.796261 14.35C1.51376 15.2425 2.57251 15.75 3.71876 15.75H4.10376C4.17376 15.8638 4.23501 15.9862 4.32251 16.1C5.04001 16.9925 6.09876 17.5 7.24501 17.5H8.65376C8.69751 19.4338 10.2813 21 12.2238 21C14.1663 21 15.75 19.4338 15.7938 17.5H17.255C18.4363 17.5 19.5213 16.9575 20.2388 16.0212C20.9475 15.085 21.1838 13.8862 20.86 12.7487ZM1.47876 13.7987C0.936261 13.1163 0.726261 12.2325 0.910011 11.4012L2.41501 5.92375C3.08001 2.94875 5.66126 0.875 8.70626 0.875C9.85251 0.875 10.9725 1.19 11.9525 1.75875C8.61876 1.88125 5.81876 4.2 5.09251 7.455L3.58751 12.9325C3.43876 13.5887 3.49126 14.245 3.69251 14.8663C2.82626 14.8663 2.02126 14.4725 1.47876 13.79V13.7987ZM12.2238 20.125C10.7625 20.125 9.57251 18.9525 9.52876 17.5H14.9188C14.875 18.9525 13.685 20.125 12.2238 20.125ZM19.5388 15.4962C18.9963 16.2137 18.1563 16.625 17.255 16.625H7.24501C6.37001 16.625 5.55626 16.2313 5.00501 15.5487C4.46251 14.8663 4.25251 13.9825 4.43626 13.1512L5.94126 7.67375C6.60626 4.69875 9.18751 2.625 12.2325 2.625C15.12 2.625 17.6663 4.5675 18.445 7.34125L20.02 12.985C20.265 13.86 20.09 14.77 19.5388 15.4875V15.4962Z" fill="white"/>
</g>
<defs>
<clipPath id="clip0_238_244">
<rect width="21" height="21" fill="white"/>
</clipPath>
</defs>
</svg>
