<svg width="21" height="21" viewBox="0 0 21 21" fill="none" xmlns="http://www.w3.org/2000/svg">
<g clip-path="url(#clip0_234_523)">
<path d="M10.5 0C4.71012 0 0 4.71012 0 10.5C0 16.2899 4.71012 21 10.5 21C16.2899 21 21 16.2899 21 10.5C21 4.71012 16.2899 0 10.5 0ZM6.125 19.0724V18.375C6.125 15.9626 8.08763 14 10.5 14C12.9124 14 14.875 15.9626 14.875 18.375V19.0724C13.5616 19.7453 12.0741 20.125 10.5 20.125C8.92587 20.125 7.43837 19.7453 6.125 19.0724ZM15.75 18.5631V18.375C15.75 15.4796 13.3954 13.125 10.5 13.125C7.60462 13.125 5.25 15.4796 5.25 18.375V18.5631C2.618 16.8438 0.875 13.8714 0.875 10.5C0.875 5.19312 5.19312 0.875 10.5 0.875C15.8069 0.875 20.125 5.19312 20.125 10.5C20.125 13.8714 18.382 16.8438 15.75 18.5631ZM10.5 4.375C8.56975 4.375 7 5.94475 7 7.875C7 9.80525 8.56975 11.375 10.5 11.375C12.4303 11.375 14 9.80525 14 7.875C14 5.94475 12.4303 4.375 10.5 4.375ZM10.5 10.5C9.05275 10.5 7.875 9.32225 7.875 7.875C7.875 6.42775 9.05275 5.25 10.5 5.25C11.9473 5.25 13.125 6.42775 13.125 7.875C13.125 9.32225 11.9473 10.5 10.5 10.5Z" fill="white"/>
</g>
<defs>
<clipPath id="clip0_234_523">
<rect width="21" height="21" fill="white"/>
</clipPath>
</defs>
</svg>
