<svg width="329" height="192" viewBox="0 0 329 192" fill="none" xmlns="http://www.w3.org/2000/svg">
<mask id="mask0_844_2399" style="mask-type:luminance" maskUnits="userSpaceOnUse" x="-49" y="0" width="538" height="192">
<path d="M488.399 0H-49V192H488.399V0Z" fill="white"/>
</mask>
<g mask="url(#mask0_844_2399)">
<mask id="mask1_844_2399" style="mask-type:luminance" maskUnits="userSpaceOnUse" x="-49" y="-167" width="538" height="360">
<path d="M488.399 -166.265H-48.9998V192.001H488.399V-166.265Z" fill="white"/>
</mask>
<g mask="url(#mask1_844_2399)">
<g style="mix-blend-mode:soft-light" opacity="0.35">
<path d="M286.327 57.6524H263.934V35.2598L286.327 57.6524Z" fill="#6D6E71"/>
<path d="M129.587 80.0455H151.979V102.43L129.587 80.0455Z" fill="#E6E7E8"/>
<path d="M308.719 102.43H331.112V124.822L308.719 102.43Z" fill="#6D6E71"/>
<path d="M241.549 147.215H263.934V169.608L241.549 147.215Z" fill="#808285"/>
<path d="M331.112 12.8666H308.719V-9.526L331.112 12.8666Z" fill="#BCBEC0"/>
<path d="M308.719 -9.526H331.112V12.8666L308.719 -9.526Z" fill="#BCBEC0"/>
<path d="M308.72 12.8666H286.327V-9.526L308.72 12.8666Z" fill="#A7A9AC"/>
<path d="M286.327 -9.526H308.72V12.8666L286.327 -9.526Z" fill="#D1D3D4"/>
<path d="M286.327 12.8666H263.934V-9.526L286.327 12.8666Z" fill="#BCBEC0"/>
<path d="M263.934 -9.526H286.327V12.8666L263.934 -9.526Z" fill="#6D6E71"/>
<path d="M263.934 12.8666H241.549V-9.526L263.934 12.8666Z" fill="#E6E7E8"/>
<path d="M241.549 -9.526H263.934V12.8666L241.549 -9.526Z" fill="#808285"/>
<path d="M241.549 12.8666H219.157V-9.526L241.549 12.8666Z" fill="#BCBEC0"/>
<path d="M219.157 -9.526H241.549V12.8666L219.157 -9.526Z" fill="#6D6E71"/>
<path d="M219.157 12.8666H196.764V-9.526L219.157 12.8666Z" fill="#808285"/>
<path d="M196.764 -9.526H219.157V12.8666L196.764 -9.526Z" fill="#E6E7E8"/>
<path d="M196.765 12.8666H174.372V-9.526L196.765 12.8666Z" fill="#6D6E71"/>
<path d="M174.372 -9.526H196.765V12.8666L174.372 -9.526Z" fill="#6D6E71"/>
<path d="M174.372 12.8666H151.979V-9.526L174.372 12.8666Z" fill="#939598"/>
<path d="M151.979 -9.526H174.372V12.8666L151.979 -9.526Z" fill="#58595B"/>
<path d="M151.979 12.8666H129.587V-9.526L151.979 12.8666Z" fill="#808285"/>
<path d="M129.587 -9.526H151.979V12.8666L129.587 -9.526Z" fill="#6D6E71"/>
<path d="M331.112 35.2602H308.719V12.8676L331.112 35.2602Z" fill="#A7A9AC"/>
<path d="M308.719 12.8676H331.112V35.2602L308.719 12.8676Z" fill="#6D6E71"/>
<path d="M308.72 35.2602H286.327V12.8676L308.72 35.2602Z" fill="#939598"/>
<path d="M286.327 12.8676H308.72V35.2602L286.327 12.8676Z" fill="#939598"/>
<path d="M286.327 35.2602H263.934V12.8676L286.327 35.2602Z" fill="#939598"/>
<path d="M263.934 12.8676H286.327V35.2602L263.934 12.8676Z" fill="#E6E7E8"/>
<path d="M263.934 35.2602H241.549V12.8676L263.934 35.2602Z" fill="#939598"/>
<path d="M241.549 12.8676H263.934V35.2602L241.549 12.8676Z" fill="#A7A9AC"/>
<path d="M241.549 35.2602H219.157V12.8676L241.549 35.2602Z" fill="#BCBEC0"/>
<path d="M219.157 12.8676H241.549V35.2602L219.157 12.8676Z" fill="#E6E7E8"/>
<path d="M219.157 35.2602H196.764V12.8676L219.157 35.2602Z" fill="#939598"/>
<path d="M196.764 12.8676H219.157V35.2602L196.764 12.8676Z" fill="#939598"/>
<path d="M196.765 35.2602H174.372V12.8676L196.765 35.2602Z" fill="#6D6E71"/>
<path d="M174.372 12.8676H196.765V35.2602L174.372 12.8676Z" fill="#D1D3D4"/>
<path d="M174.372 35.2602H151.979V12.8676L174.372 35.2602Z" fill="#6D6E71"/>
<path d="M151.979 12.8676H174.372V35.2602L151.979 12.8676Z" fill="#6D6E71"/>
<path d="M151.979 35.2602H129.587V12.8676L151.979 35.2602Z" fill="#D1D3D4"/>
<path d="M129.587 12.8676H151.979V35.2602L129.587 12.8676Z" fill="#BCBEC0"/>
<path d="M331.112 57.6524H308.719V35.2598L331.112 57.6524Z" fill="#6D6E71"/>
<path d="M308.719 35.2598H331.112V57.6524L308.719 35.2598Z" fill="#808285"/>
<path d="M308.72 57.6524H286.327V35.2598L308.72 57.6524Z" fill="#E6E7E8"/>
<path d="M286.327 35.2598H308.72V57.6524L286.327 35.2598Z" fill="#BCBEC0"/>
<path d="M263.934 35.2598H286.327V57.6524L263.934 35.2598Z" fill="#BCBEC0"/>
<path d="M263.934 57.6524H241.549V35.2598L263.934 57.6524Z" fill="#E6E7E8"/>
<path d="M241.549 35.2598H263.934V57.6524L241.549 35.2598Z" fill="#F1F2F2"/>
<path d="M241.549 57.6524H219.157V35.2598L241.549 57.6524Z" fill="#A7A9AC"/>
<path d="M219.157 35.2598H241.549V57.6524L219.157 35.2598Z" fill="#6D6E71"/>
<path d="M219.157 57.6524H196.764V35.2598L219.157 57.6524Z" fill="#58595B"/>
<path d="M196.764 35.2598H219.157V57.6524L196.764 35.2598Z" fill="#58595B"/>
<path d="M174.372 57.6524H151.979V35.2598L174.372 57.6524Z" fill="#A7A9AC"/>
<path d="M151.979 35.2598H174.372V57.6524L151.979 35.2598Z" fill="#A7A9AC"/>
<path d="M151.979 57.6524H129.587V35.2598L151.979 57.6524Z" fill="#E6E7E8"/>
<path d="M129.587 35.2598H151.979V57.6524L129.587 35.2598Z" fill="#808285"/>
<path d="M331.112 80.0453H308.719V57.6527L331.112 80.0453Z" fill="#F1F2F2"/>
<path d="M308.719 57.6527H331.112V80.0453L308.719 57.6527Z" fill="#BCBEC0"/>
<path d="M308.72 80.0453H286.327V57.6527L308.72 80.0453Z" fill="#D1D3D4"/>
<path d="M286.327 57.6527H308.72V80.0453L286.327 57.6527Z" fill="#58595B"/>
<path d="M286.327 80.0453H263.934V57.6527L286.327 80.0453Z" fill="#BCBEC0"/>
<path d="M263.934 57.6527H286.327V80.0453L263.934 57.6527Z" fill="#BCBEC0"/>
<path d="M263.934 80.0453H241.549V57.6527L263.934 80.0453Z" fill="#808285"/>
<path d="M241.549 57.6527H263.934V80.0453L241.549 57.6527Z" fill="#808285"/>
<path d="M241.549 80.0453H219.157V57.6527L241.549 80.0453Z" fill="#939598"/>
<path d="M219.157 57.6527H241.549V80.0453L219.157 57.6527Z" fill="#F1F2F2"/>
<path d="M219.157 80.0453H196.764V57.6527L219.157 80.0453Z" fill="#A7A9AC"/>
<path d="M196.764 57.6527H219.157V80.0453L196.764 57.6527Z" fill="#A7A9AC"/>
<path d="M196.765 80.0453H174.372V57.6527L196.765 80.0453Z" fill="#6D6E71"/>
<path d="M174.372 57.6527H196.765V80.0453L174.372 57.6527Z" fill="#939598"/>
<path d="M174.372 80.0453H151.979V57.6527L174.372 80.0453Z" fill="#939598"/>
<path d="M151.979 57.6527H174.372V80.0453L151.979 57.6527Z" fill="#F1F2F2"/>
<path d="M151.979 80.0453H129.587V57.6527L151.979 80.0453Z" fill="#6D6E71"/>
<path d="M129.587 57.6527H151.979V80.0453L129.587 57.6527Z" fill="#939598"/>
<path d="M331.112 102.43H308.719V80.0455L331.112 102.43Z" fill="#A7A9AC"/>
<path d="M308.719 80.0455H331.112V102.43L308.719 80.0455Z" fill="#D1D3D4"/>
<path d="M308.72 102.43H286.327V80.0455L308.72 102.43Z" fill="#A7A9AC"/>
<path d="M286.327 80.0455H308.72V102.43L286.327 80.0455Z" fill="#58595B"/>
<path d="M286.327 102.43H263.934V80.0455L286.327 102.43Z" fill="#E6E7E8"/>
<path d="M263.934 80.0455H286.327V102.43L263.934 80.0455Z" fill="#A7A9AC"/>
<path d="M263.934 102.43H241.549V80.0455L263.934 102.43Z" fill="#E6E7E8"/>
<path d="M241.549 80.0455H263.934V102.43L241.549 80.0455Z" fill="#D1D3D4"/>
<path d="M241.549 102.43H219.157V80.0455L241.549 102.43Z" fill="#D1D3D4"/>
<path d="M219.157 80.0455H241.549V102.43L219.157 80.0455Z" fill="#D1D3D4"/>
<path d="M219.157 102.43H196.764V80.0455L219.157 102.43Z" fill="#D1D3D4"/>
<path d="M196.764 80.0455H219.157V102.43L196.764 80.0455Z" fill="#D1D3D4"/>
<path d="M196.765 102.43H174.372V80.0455L196.765 102.43Z" fill="#6D6E71"/>
<path d="M174.372 80.0455H196.765V102.43L174.372 80.0455Z" fill="#939598"/>
<path d="M174.372 102.43H151.979V80.0455L174.372 102.43Z" fill="#E6E7E8"/>
<path d="M151.979 80.0455H174.372V102.43L151.979 80.0455Z" fill="#E6E7E8"/>
<path d="M151.979 102.43H129.587V80.0455L151.979 102.43Z" fill="#6D6E71"/>
<path d="M331.112 124.822H308.719V102.43L331.112 124.822Z" fill="#A7A9AC"/>
<path d="M308.72 124.822H286.327V102.43L308.72 124.822Z" fill="#D1D3D4"/>
<path d="M286.327 102.43H308.72V124.822L286.327 102.43Z" fill="#939598"/>
<path d="M286.327 124.822H263.934V102.43L286.327 124.822Z" fill="#E6E7E8"/>
<path d="M263.934 102.43H286.327V124.822L263.934 102.43Z" fill="#58595B"/>
<path d="M263.934 124.822H241.549V102.43L263.934 124.822Z" fill="#BCBEC0"/>
<path d="M241.549 102.43H263.934V124.822L241.549 102.43Z" fill="#A7A9AC"/>
<path d="M241.549 124.822H219.157V102.43L241.549 124.822Z" fill="#A7A9AC"/>
<path d="M219.157 102.43H241.549V124.822L219.157 102.43Z" fill="#58595B"/>
<path d="M219.157 124.822H196.764V102.43L219.157 124.822Z" fill="#E6E7E8"/>
<path d="M196.764 102.43H219.157V124.822L196.764 102.43Z" fill="#A7A9AC"/>
<path d="M196.765 124.822H174.372V102.43L196.765 124.822Z" fill="#D1D3D4"/>
<path d="M174.372 102.43H196.765V124.822L174.372 102.43Z" fill="#BCBEC0"/>
<path d="M151.979 124.822H129.587V102.43L151.979 124.822Z" fill="#939598"/>
<path d="M129.587 102.43H151.979V124.822L129.587 102.43Z" fill="#808285"/>
<path d="M331.112 147.215H308.719V124.822L331.112 147.215Z" fill="#939598"/>
<path d="M308.719 124.822H331.112V147.215L308.719 124.822Z" fill="#BCBEC0"/>
<path d="M308.72 147.215H286.327V124.822L308.72 147.215Z" fill="#808285"/>
<path d="M286.327 124.822H308.72V147.215L286.327 124.822Z" fill="#BCBEC0"/>
<path d="M286.327 147.215H263.934V124.822L286.327 147.215Z" fill="#939598"/>
<path d="M263.934 124.822H286.327V147.215L263.934 124.822Z" fill="#939598"/>
<path d="M263.934 147.215H241.549V124.822L263.934 147.215Z" fill="#E6E7E8"/>
<path d="M241.549 124.822H263.934V147.215L241.549 124.822Z" fill="#6D6E71"/>
<path d="M241.549 147.215H219.157V124.822L241.549 147.215Z" fill="#939598"/>
<path d="M219.157 124.822H241.549V147.215L219.157 124.822Z" fill="#58595B"/>
<path d="M219.157 147.215H196.764V124.822L219.157 147.215Z" fill="#E6E7E8"/>
<path d="M196.764 124.822H219.157V147.215L196.764 124.822Z" fill="#BCBEC0"/>
<path d="M196.765 147.215H174.372V124.822L196.765 147.215Z" fill="#939598"/>
<path d="M174.372 124.822H196.765V147.215L174.372 124.822Z" fill="#6D6E71"/>
<path d="M174.372 147.215H151.979V124.822L174.372 147.215Z" fill="#E6E7E8"/>
<path d="M151.979 124.822H174.372V147.215L151.979 124.822Z" fill="#E6E7E8"/>
<path d="M151.979 147.215H129.587V124.822L151.979 147.215Z" fill="#E6E7E8"/>
<path d="M129.587 124.822H151.979V147.215L129.587 124.822Z" fill="#E6E7E8"/>
<path d="M331.112 169.608H308.719V147.215L331.112 169.608Z" fill="#A7A9AC"/>
<path d="M308.719 147.215H331.112V169.608L308.719 147.215Z" fill="#F1F2F2"/>
<path d="M308.72 169.608H286.327V147.215L308.72 169.608Z" fill="#808285"/>
<path d="M286.327 147.215H308.72V169.608L286.327 147.215Z" fill="#808285"/>
<path d="M286.327 169.608H263.934V147.215L286.327 169.608Z" fill="#6D6E71"/>
<path d="M263.934 147.215H286.327V169.608L263.934 147.215Z" fill="#D1D3D4"/>
<path d="M263.934 169.608H241.549V147.215L263.934 169.608Z" fill="#808285"/>
<path d="M241.549 169.608H219.157V147.215L241.549 169.608Z" fill="#E6E7E8"/>
<path d="M219.157 147.215H241.549V169.608L219.157 147.215Z" fill="#939598"/>
<path d="M219.157 169.608H196.764V147.215L219.157 169.608Z" fill="#58595B"/>
<path d="M196.764 147.215H219.157V169.608L196.764 147.215Z" fill="#939598"/>
<path d="M196.765 169.608H174.372V147.215L196.765 169.608Z" fill="#58595B"/>
<path d="M174.372 147.215H196.765V169.608L174.372 147.215Z" fill="#E6E7E8"/>
<path d="M174.372 169.608H151.979V147.215L174.372 169.608Z" fill="#F1F2F2"/>
<path d="M151.979 147.215H174.372V169.608L151.979 147.215Z" fill="#D1D3D4"/>
<path d="M151.979 169.608H129.587V147.215L151.979 169.608Z" fill="#808285"/>
<path d="M129.587 147.215H151.979V169.608L129.587 147.215Z" fill="#6D6E71"/>
<path d="M331.112 192H308.719V169.607L331.112 192Z" fill="#A7A9AC"/>
<path d="M308.719 169.607H331.112V192L308.719 169.607Z" fill="#E6E7E8"/>
<path d="M308.72 192H286.327V169.607L308.72 192Z" fill="#BCBEC0"/>
<path d="M286.327 169.607H308.72V192L286.327 169.607Z" fill="#E6E7E8"/>
<path d="M286.327 192H263.934V169.607L286.327 192Z" fill="#808285"/>
<path d="M263.934 169.607H286.327V192L263.934 169.607Z" fill="#6D6E71"/>
<path d="M263.934 192H241.549V169.607L263.934 192Z" fill="#6D6E71"/>
<path d="M241.549 169.607H263.934V192L241.549 169.607Z" fill="#D1D3D4"/>
<path d="M241.549 192H219.157V169.607L241.549 192Z" fill="#E6E7E8"/>
<path d="M219.157 169.607H241.549V192L219.157 169.607Z" fill="#6D6E71"/>
<path d="M219.157 192H196.764V169.607L219.157 192Z" fill="#A7A9AC"/>
<path d="M196.764 169.607H219.157V192L196.764 169.607Z" fill="#D1D3D4"/>
<path d="M196.765 192H174.372V169.607L196.765 192Z" fill="#F1F2F2"/>
<path d="M174.372 169.607H196.765V192L174.372 169.607Z" fill="#58595B"/>
<path d="M174.372 192H151.979V169.607L174.372 192Z" fill="#E6E7E8"/>
<path d="M151.979 169.607H174.372V192L151.979 169.607Z" fill="#D1D3D4"/>
<path d="M151.979 192H129.587V169.607L151.979 192Z" fill="#A7A9AC"/>
<path d="M129.587 169.607H151.979V192L129.587 169.607Z" fill="#BCBEC0"/>
</g>
<g style="mix-blend-mode:overlay" opacity="0.3">
<path opacity="0.68" d="M308.498 -10.0632L331.65 13.0895H308.498V-10.0632ZM330.55 12.6461L308.917 -8.98636V12.6461H330.55Z" fill="white"/>
<path opacity="0.67" d="M308.181 -9.74683H331.342V13.4059L308.181 -9.74683ZM330.89 -9.30341H309.258L330.89 12.3291V-9.30341Z" fill="white"/>
<path opacity="0.56" d="M286.105 -10.0632L309.258 13.0895H286.105V-10.0632ZM308.181 12.6461L286.557 -8.98636V12.6461H308.181Z" fill="#231F20"/>
<path opacity="0.97" d="M285.789 -9.74683H308.941V13.4059L285.789 -9.74683ZM308.498 -9.30341H286.873L308.498 12.3291V-9.30341Z" fill="white"/>
<path opacity="0.71" d="M263.713 -10.0632L286.874 13.0895H263.713V-10.0632ZM285.789 12.6461L264.164 -8.98636V12.6461H285.789Z" fill="white"/>
<path opacity="0.45" d="M263.396 -9.74683H286.556V13.4059L263.396 -9.74683ZM286.105 -9.30341H264.481L286.105 12.3291V-9.30341Z" fill="white"/>
<path opacity="0.66" d="M241.32 -10.0632L264.481 13.0895H241.32V-10.0632ZM263.396 12.6461L241.771 -8.98636V12.6461H263.396Z" fill="white"/>
<path opacity="0.44" d="M241.004 -9.74683H264.164V13.4059L241.004 -9.74683ZM263.713 -9.30341H242.088L263.713 12.3291V-9.30341Z" fill="#231F20"/>
<path opacity="0.7" d="M218.904 -10.0632L242.065 13.0895H218.904V-10.0632ZM240.98 12.6461L219.379 -8.98636V12.6461H240.98Z" fill="#231F20"/>
<path opacity="0.95" d="M218.611 -9.74683H241.771V13.4059L218.611 -9.74683ZM241.32 -9.30341H219.695L241.32 12.3291V-9.30341Z" fill="#231F20"/>
<path opacity="0.19" d="M196.543 -10.0632L219.695 13.0895H196.543V-10.0632ZM218.611 12.6461L196.986 -8.98636V12.6461H218.611Z" fill="#231F20"/>
<path opacity="0.34" d="M196.226 -9.74683H219.379V13.4059L196.226 -9.74683ZM218.927 -9.30341H197.303L218.904 12.3291L218.927 -9.30341Z" fill="white"/>
<path opacity="0.94" d="M174.15 -10.0632L197.303 13.0895H174.15V-10.0632ZM196.226 12.6461L174.562 -8.98636V12.6461H196.226Z" fill="white"/>
<path opacity="0.13" d="M173.833 -9.74683H196.986V13.4059L173.833 -9.74683ZM196.542 -9.30341H174.91L196.542 12.3291V-9.30341Z" fill="white"/>
<path opacity="0.4" d="M151.757 -10.0632L174.91 13.0895H151.757V-10.0632ZM173.833 12.6461L152.201 -8.98636V12.6461H173.833Z" fill="white"/>
<path opacity="0.75" d="M151.441 -9.74683H174.562V13.4059L151.441 -9.74683ZM174.15 -9.30341H152.518L174.15 12.3291V-9.30341Z" fill="white"/>
<path opacity="0.26" d="M129.365 -10.0632L152.518 13.0895H129.365V-10.0632ZM151.441 12.6461L129.816 -8.98636V12.6461H151.441Z" fill="white"/>
<path opacity="0.5" d="M129.048 -9.74683H152.201V13.4059L129.048 -9.74683ZM151.757 -9.30341H130.133L151.757 12.3291V-9.30341Z" fill="white"/>
<path opacity="0.89" d="M308.498 12.3286L331.65 35.4814H308.498V12.3286ZM330.55 35.0379L308.917 13.4055V35.0379H330.55Z" fill="white"/>
<path opacity="0.24" d="M308.181 12.6459H331.342V35.7986L308.181 12.6459ZM330.89 13.0893H309.258L330.89 34.7218V13.0893Z" fill="#231F20"/>
<path opacity="0.95" d="M286.105 12.3286L309.258 35.4814H286.105V12.3286ZM308.181 35.0379L286.557 13.4055V35.0379H308.181Z" fill="#231F20"/>
<path opacity="0.78" d="M285.789 12.6459H308.941V35.7986L285.789 12.6459ZM308.498 13.0893H286.873L308.498 34.7218V13.0893Z" fill="#231F20"/>
<path opacity="0.14" d="M263.713 12.3286L286.874 35.4814H263.713V12.3286ZM285.789 35.0379L264.164 13.4055V35.0379H285.789Z" fill="#231F20"/>
<path opacity="0.36" d="M263.396 12.6459H286.556V35.7986L263.396 12.6459ZM286.105 13.0893H264.481L286.105 34.7218V13.0893Z" fill="white"/>
<path opacity="0.59" d="M241.32 12.3286L264.481 35.4814H241.32V12.3286ZM263.396 35.0379L241.771 13.4055V35.0379H263.396Z" fill="#231F20"/>
<path opacity="0.66" d="M241.004 12.6459H264.164V35.7986L241.004 12.6459ZM263.713 13.0893H242.088L263.713 34.7218V13.0893Z" fill="#231F20"/>
<path opacity="0.25" d="M218.904 12.3286L242.065 35.4814H218.904V12.3286ZM240.98 35.0379L219.379 13.4055V35.0379H240.98Z" fill="#231F20"/>
<path opacity="0.61" d="M218.611 12.6459H241.771V35.7986L218.611 12.6459ZM241.32 13.0893H219.695L241.32 34.7218V13.0893Z" fill="#231F20"/>
<path opacity="0.26" d="M196.543 12.3286L219.695 35.4814H196.543V12.3286ZM218.611 35.0379L196.986 13.4055V35.0379H218.611Z" fill="#231F20"/>
<path opacity="0.64" d="M196.226 12.6459H219.379V35.7986L196.226 12.6459ZM218.927 13.0893H197.303L218.904 34.7218L218.927 13.0893Z" fill="#231F20"/>
<path opacity="0.48" d="M174.15 12.3286L197.303 35.4814H174.15V12.3286ZM196.226 35.0379L174.562 13.4055V35.0379H196.226Z" fill="#231F20"/>
<path opacity="0.81" d="M173.833 12.6459H196.986V35.7986L173.833 12.6459ZM196.542 13.0893H174.91L196.542 34.7218V13.0893Z" fill="white"/>
<path opacity="0.58" d="M151.757 12.3286L174.91 35.4814H151.757V12.3286ZM173.833 35.0379L152.201 13.4055V35.0379H173.833Z" fill="white"/>
<path opacity="0.84" d="M151.441 12.6459H174.562V35.7986L151.441 12.6459ZM174.15 13.0893H152.518L174.15 34.7218V13.0893Z" fill="white"/>
<path opacity="0.79" d="M129.365 12.3286L152.518 35.4814H129.365V12.3286ZM151.441 35.0379L129.816 13.4055V35.0379H151.441Z" fill="white"/>
<path opacity="0.49" d="M129.048 12.6459H152.201V35.7986L129.048 12.6459ZM151.757 13.0893H130.133L151.757 34.7218V13.0893Z" fill="#231F20"/>
<path opacity="0.31" d="M308.498 34.7214L331.65 57.89H308.498V34.7214ZM330.55 57.4229L308.941 35.7983V57.4229H330.55Z" fill="white"/>
<path opacity="0.26" d="M308.181 35.0381H331.342V58.1908L308.181 35.0381ZM330.89 35.4815H309.258L330.89 57.0981V35.4815Z" fill="#231F20"/>
<path opacity="0.97" d="M286.105 34.7214L309.258 57.89H286.105V34.7214ZM308.181 57.4229L286.557 35.7983V57.4229H308.181Z" fill="#231F20"/>
<path opacity="0.18" d="M285.789 35.0381H308.941V58.1908L285.789 35.0381ZM308.498 35.4815H286.873L308.498 57.0981V35.4815Z" fill="white"/>
<path opacity="0.31" d="M263.713 34.7214L286.874 57.89H263.713V34.7214ZM285.789 57.4229L264.164 35.7983V57.4229H285.789Z" fill="#231F20"/>
<path opacity="0.47" d="M263.396 35.0381H286.556V58.1908L263.396 35.0381ZM286.105 35.4815H264.481L286.105 57.0981V35.4815Z" fill="white"/>
<path opacity="0.36" d="M241.32 34.7214L264.481 57.89H241.32V34.7214ZM263.396 57.4229L241.771 35.7983V57.4229H263.396Z" fill="white"/>
<path opacity="0.87" d="M241.004 35.0381H264.164V58.1908L241.004 35.0381ZM263.713 35.4815H242.088L263.713 57.0981V35.4815Z" fill="white"/>
<path opacity="0.18" d="M218.904 34.7214L242.088 57.89H218.904V34.7214ZM240.98 57.4229L219.379 35.7983V57.4229H240.98Z" fill="white"/>
<path opacity="0.45" d="M218.611 35.0381H241.771V58.1908L218.611 35.0381ZM241.32 35.4815H219.695L241.32 57.0981V35.4815Z" fill="#231F20"/>
<path opacity="0.62" d="M196.543 34.7214L219.695 57.89H196.543V34.7214ZM218.611 57.4229L196.986 35.7983V57.4229H218.611Z" fill="#231F20"/>
<path opacity="0.51" d="M196.226 35.0381H219.379V58.1908L196.226 35.0381ZM218.927 35.4815H197.303L218.904 57.0981L218.927 35.4815Z" fill="#231F20"/>
<path opacity="0.87" d="M151.757 34.7214L174.91 57.89H151.757V34.7214ZM173.833 57.4229L152.201 35.7983V57.4229H173.833Z" fill="white"/>
<path opacity="0.18" d="M151.441 35.0381H174.562V58.1908L151.441 35.0381ZM174.15 35.4815H152.518L174.15 57.0981V35.4815Z" fill="white"/>
<path opacity="0.88" d="M129.365 34.7214L152.518 57.89H129.365V34.7214ZM151.441 57.4229L129.816 35.7983V57.4229H151.441Z" fill="white"/>
<path opacity="0.4" d="M129.048 35.0381H152.201V58.1908L129.048 35.0381ZM151.757 35.4815H130.133L151.757 57.0981V35.4815Z" fill="white"/>
<path opacity="0.44" d="M308.498 57.0984L331.65 80.2591H308.498V57.0984ZM330.55 79.8156L308.917 58.1911V79.8156H330.55Z" fill="white"/>
<path opacity="0.87" d="M308.181 57.4235H331.342V80.5841L308.181 57.4235ZM330.89 57.8748H309.258L330.89 79.4993V57.8748Z" fill="#231F20"/>
<path opacity="0.93" d="M286.105 57.0984L309.258 80.2591H286.105V57.0984ZM308.181 79.8077L286.557 58.1832V79.8077H308.181Z" fill="white"/>
<path opacity="0.28" d="M285.789 57.4235H308.941V80.5841L285.789 57.4235ZM308.498 57.8748H286.873L308.498 79.4993V57.8748Z" fill="#231F20"/>
<path opacity="0.92" d="M263.713 57.0984L286.874 80.2591H263.713V57.0984ZM285.789 79.8077L264.164 58.1832V79.8077H285.789Z" fill="white"/>
<path opacity="0.31" d="M263.396 57.4235H286.556V80.5841L263.396 57.4235ZM286.105 57.8748H264.481L286.105 79.4993V57.8748Z" fill="#231F20"/>
<path opacity="0.32" d="M241.32 57.0984L264.481 80.2591H241.32V57.0984ZM263.396 79.8077L241.771 58.1832V79.8077H263.396Z" fill="white"/>
<path opacity="0.35" d="M241.004 57.4235H264.164V80.5841L241.004 57.4235ZM263.713 57.8748H242.088L263.713 79.4993V57.8748Z" fill="white"/>
<path opacity="0.93" d="M218.904 57.0984L242.065 80.2591H218.904V57.0984ZM240.98 79.8077L219.379 58.1911V79.8156L240.98 79.8077Z" fill="white"/>
<path opacity="0.39" d="M218.611 57.4235H241.771V80.5841L218.611 57.4235ZM241.32 57.8748H219.695L241.32 79.4993V57.8748Z" fill="white"/>
<path opacity="0.68" d="M196.543 57.0984L219.695 80.267H196.543V57.0984ZM218.611 79.8077L196.986 58.1832V79.8077H218.611Z" fill="white"/>
<path opacity="0.19" d="M196.226 57.4235H219.379V80.5841L196.226 57.4235ZM218.904 57.8906H197.303L218.904 79.4993V57.8906Z" fill="#231F20"/>
<path opacity="0.63" d="M174.15 57.0984L197.303 80.2591H174.15V57.0984ZM196.226 79.8077L174.562 58.1911V79.8156L196.226 79.8077Z" fill="white"/>
<path opacity="0.96" d="M173.833 57.4235H196.986V80.5841L173.833 57.4235ZM196.542 57.8748H174.91L196.542 79.4993V57.8748Z" fill="white"/>
<path opacity="0.75" d="M151.757 57.0984L174.91 80.2591H151.757V57.0984ZM173.833 79.8077L152.201 58.1832V79.8077H173.833Z" fill="#231F20"/>
<path opacity="0.16" d="M151.441 57.4235H174.562V80.5841L151.441 57.4235ZM174.15 57.8748H152.518L174.15 79.4993V57.8748Z" fill="white"/>
<path opacity="0.95" d="M129.365 57.0984L152.518 80.2591H129.365V57.0984ZM151.441 79.8077L129.816 58.1832V79.8077H151.441Z" fill="white"/>
<path opacity="0.89" d="M129.048 57.4235H152.201V80.5841L129.048 57.4235ZM151.757 57.8748H130.133L151.757 79.4993V57.8748Z" fill="white"/>
<path opacity="0.77" d="M308.498 79.4989L331.65 102.66H308.498V79.4989ZM330.55 102.232L308.917 80.6075V102.232H330.55Z" fill="white"/>
<path opacity="0.46" d="M308.181 79.8158H331.342V102.976L308.181 79.8158ZM330.89 80.2671H309.258L330.89 101.892V80.2671Z" fill="white"/>
<path opacity="0.36" d="M286.105 79.4989L309.258 102.66H286.105V79.4989ZM308.181 102.232L286.557 80.6075V102.232H308.181Z" fill="white"/>
<path opacity="0.28" d="M285.789 79.8158H308.941V102.976L285.789 79.8158ZM308.498 80.2671H286.873L308.498 101.892V80.2671Z" fill="white"/>
<path opacity="0.2" d="M263.713 79.4989L286.874 102.66H263.713V79.4989ZM285.789 102.232L264.164 80.6075V102.232H285.789Z" fill="white"/>
<path opacity="0.34" d="M263.396 79.8158H286.556V102.976L263.396 79.8158ZM286.105 80.2671H264.481L286.105 101.892V80.2671Z" fill="white"/>
<path opacity="0.34" d="M241.32 79.4989L264.481 102.66H241.32V79.4989ZM263.396 102.232L241.771 80.6075V102.232H263.396Z" fill="white"/>
<path opacity="0.3" d="M241.004 79.8158H264.164V102.976L241.004 79.8158ZM263.713 80.2671H242.088L263.713 101.892V80.2671Z" fill="#231F20"/>
<path opacity="0.14" d="M218.904 79.4989L242.065 102.66H218.904V79.4989ZM241.004 102.232L219.379 80.5837V102.232H241.004Z" fill="white"/>
<path opacity="0.56" d="M218.611 79.8158H241.771V102.976L218.611 79.8158ZM241.32 80.2671H219.695L241.32 101.892V80.2671Z" fill="white"/>
<path opacity="0.75" d="M196.543 79.4989L219.695 102.66H196.543V79.4989ZM218.611 102.232L196.986 80.6075V102.232H218.611Z" fill="white"/>
<path opacity="0.31" d="M196.226 79.8158H219.379V102.976L196.226 79.8158ZM218.927 80.2671H197.303L218.904 101.892L218.927 80.2671Z" fill="#231F20"/>
<path opacity="0.82" d="M174.15 79.4989L197.303 102.66H174.15V79.4989ZM196.226 102.232L174.562 80.5837V102.232H196.226Z" fill="white"/>
<path opacity="0.91" d="M173.833 79.8158H196.986V102.976L173.833 79.8158ZM196.542 80.2671H174.91L196.542 101.892V80.2671Z" fill="white"/>
<path opacity="0.71" d="M151.757 79.4989L174.91 102.66H151.757V79.4989ZM173.833 102.232L152.201 80.6075V102.232H173.833Z" fill="white"/>
<path opacity="0.39" d="M151.441 79.8158H174.562V102.976L151.441 79.8158ZM174.15 80.2671H152.518L174.15 101.892V80.2671Z" fill="white"/>
<path opacity="0.46" d="M129.365 79.4989L152.518 102.66H129.365V79.4989ZM151.441 102.232L129.816 80.6075V102.232H151.441Z" fill="white"/>
<path opacity="0.86" d="M129.048 79.8158H152.201V102.976L129.048 79.8158ZM151.757 80.2671H130.133L151.757 101.892V80.2671Z" fill="white"/>
<path opacity="0.78" d="M308.498 101.891L331.65 125.052H308.498V101.891ZM330.55 124.601L308.917 102.976V124.601H330.55Z" fill="#231F20"/>
<path opacity="0.71" d="M308.181 102.232H331.342V125.392L308.181 102.232ZM330.89 102.683H309.258L330.89 124.308V102.683Z" fill="#231F20"/>
<path opacity="0.88" d="M286.105 101.891L309.258 125.052H286.105V101.891ZM308.181 124.601L286.557 102.976V124.601H308.181Z" fill="white"/>
<path opacity="0.9" d="M285.789 102.232H308.941V125.392L285.789 102.232ZM308.498 102.683H286.873L308.498 124.308V102.683Z" fill="#231F20"/>
<path opacity="0.49" d="M263.713 101.891L286.874 125.052H263.713V101.891ZM285.789 124.601L264.164 102.976V124.601H285.789Z" fill="white"/>
<path opacity="0.98" d="M263.396 102.232H286.556V125.392L263.396 102.232ZM286.105 102.683H264.481L286.105 124.308V102.683Z" fill="white"/>
<path opacity="0.46" d="M241.32 101.891L264.481 125.052H241.32V101.891ZM263.396 124.601L241.771 102.976V124.601H263.396Z" fill="white"/>
<path opacity="0.66" d="M241.004 102.232H264.164V125.392L241.004 102.232ZM263.713 102.683H242.088L263.713 124.308V102.683Z" fill="white"/>
<path opacity="0.25" d="M218.904 101.891L242.065 125.052H218.904V101.891ZM240.98 124.601L219.379 102.976V124.601H240.98Z" fill="white"/>
<path opacity="0.55" d="M218.611 102.232H241.771V125.392L218.611 102.232ZM241.32 102.683H219.695L241.32 124.308V102.683Z" fill="white"/>
<path opacity="0.25" d="M196.543 101.891L219.695 125.052H196.543V101.891ZM218.611 124.601L196.986 102.976V124.601H218.611Z" fill="#231F20"/>
<path opacity="0.71" d="M196.226 102.232H219.379V125.392L196.226 102.232ZM218.927 102.683H197.303L218.904 124.284L218.927 102.683Z" fill="white"/>
<path opacity="0.87" d="M174.15 101.891L197.303 125.052H174.15V101.891ZM196.226 124.601L174.562 102.976V124.601H196.226Z" fill="#231F20"/>
<path d="M173.833 102.232H196.986V125.392L173.833 102.232ZM196.542 102.683H174.91L196.542 124.308V102.683Z" fill="#231F20"/>
<path opacity="0.12" d="M129.365 101.891L152.518 125.052H129.365V101.891ZM151.441 124.601L129.816 102.976V124.601H151.441Z" fill="white"/>
<path opacity="0.26" d="M129.048 102.232H152.201V125.392L129.048 102.232ZM151.757 102.683H130.133L151.757 124.308V102.683Z" fill="white"/>
<path opacity="0.36" d="M308.498 124.284L331.65 147.437H308.498V124.284ZM330.55 146.993L308.917 125.369V146.993H330.55Z" fill="#231F20"/>
<path opacity="0.84" d="M308.181 124.601H331.342V147.754L308.181 124.601ZM330.89 125.052H309.258L330.89 146.677V125.052Z" fill="white"/>
<path opacity="0.41" d="M286.105 124.284L309.258 147.437H286.105V124.284ZM308.181 146.993L286.557 125.369V146.993H308.181Z" fill="#231F20"/>
<path opacity="0.85" d="M285.789 124.601H308.941V147.754L285.789 124.601ZM308.498 125.052H286.873L308.498 146.677V125.052Z" fill="#231F20"/>
<path opacity="0.82" d="M263.713 124.284L286.874 147.437H263.713V124.284ZM285.789 146.993L264.164 125.369V146.993H285.789Z" fill="#231F20"/>
<path opacity="0.62" d="M263.396 124.601H286.556V147.754L263.396 124.601ZM286.105 125.052H264.481L286.105 146.677V125.052Z" fill="#231F20"/>
<path opacity="0.98" d="M241.32 124.284L264.481 147.437H241.32V124.284ZM263.396 146.993L241.771 125.369V146.993H263.396Z" fill="#231F20"/>
<path opacity="0.54" d="M241.004 124.601H264.164V147.754L241.004 124.601ZM263.713 125.052H242.088L263.713 146.677V125.052Z" fill="#231F20"/>
<path opacity="0.1" d="M218.904 124.284L242.065 147.437H218.904V124.284ZM240.98 146.993L219.379 125.369V146.993H240.98Z" fill="white"/>
<path opacity="0.86" d="M218.611 124.601H241.771V147.754L218.611 124.601ZM241.32 125.052H219.695L241.32 146.677V125.052Z" fill="white"/>
<path opacity="0.38" d="M196.543 124.284L219.695 147.437H196.543V124.284ZM218.611 146.993L196.986 125.369V146.993H218.611Z" fill="white"/>
<path opacity="0.58" d="M196.226 124.601H219.379V147.754L196.226 124.601ZM218.927 125.052H197.303L218.904 146.677L218.927 125.052Z" fill="white"/>
<path opacity="0.72" d="M174.15 124.284L197.303 147.437H174.15V124.284ZM196.226 146.993L174.562 125.369V146.993H196.226Z" fill="#231F20"/>
<path opacity="0.57" d="M173.833 124.601H196.986V147.754L173.833 124.601ZM196.542 125.052H174.91L196.542 146.677V125.052Z" fill="#231F20"/>
<path opacity="0.23" d="M151.757 124.284L174.91 147.437H151.757V124.284ZM173.833 146.993L152.201 125.369V146.993H173.833Z" fill="#231F20"/>
<path opacity="0.5" d="M151.441 124.601H174.562V147.754L151.441 124.601ZM174.15 125.052H152.518L174.15 146.677V125.052Z" fill="#231F20"/>
<path opacity="0.26" d="M129.365 124.284L152.518 147.437H129.365V124.284ZM151.441 146.993L129.816 125.369V146.993H151.441Z" fill="#231F20"/>
<path opacity="0.37" d="M129.048 124.601H152.201V147.754L129.048 124.601ZM151.757 125.052H130.133L151.757 146.677V125.052Z" fill="#231F20"/>
<path opacity="0.32" d="M308.498 146.677L331.65 169.83H308.498V146.677ZM330.55 169.386L308.917 147.754V169.386H330.55Z" fill="#231F20"/>
<path opacity="0.7" d="M308.181 146.994H331.342V170.146L308.181 146.994ZM330.89 147.437H309.258L330.89 169.07V147.437Z" fill="#231F20"/>
<path opacity="0.96" d="M286.105 146.677L309.258 169.83H286.105V146.677ZM308.181 169.386L286.557 147.754V169.386H308.181Z" fill="#231F20"/>
<path opacity="0.66" d="M285.789 146.994H308.941V170.146L285.789 146.994ZM308.498 147.437H286.873L308.498 169.07V147.437Z" fill="white"/>
<path opacity="0.22" d="M263.713 146.677L286.874 169.83H263.713V146.677ZM285.789 169.386L264.164 147.754V169.386H285.789Z" fill="#231F20"/>
<path opacity="0.54" d="M263.396 146.994H286.556V170.146L263.396 146.994ZM286.105 147.437H264.481L286.105 169.07V147.437Z" fill="#231F20"/>
<path opacity="0.33" d="M241.32 146.677L264.481 169.83H241.32V146.677ZM263.396 169.386L241.771 147.754V169.386H263.396Z" fill="#231F20"/>
<path opacity="0.52" d="M241.004 146.994H264.164V170.146L241.004 146.994ZM263.713 147.437H242.088L263.713 169.07V147.437Z" fill="#231F20"/>
<path opacity="0.6" d="M218.904 146.677L242.065 169.83H218.904V146.677ZM240.98 169.386L219.379 147.754V169.386H240.98Z" fill="white"/>
<path opacity="0.14" d="M218.611 146.994H241.771V170.146L218.611 146.994ZM241.32 147.437H219.695L241.32 169.07V147.437Z" fill="white"/>
<path opacity="0.8" d="M196.543 146.677L219.695 169.83H196.543V146.677ZM218.611 169.386L196.986 147.754V169.386H218.611Z" fill="white"/>
<path opacity="0.78" d="M196.226 146.994H219.379V170.146L196.226 146.994ZM218.927 147.437H197.303L218.904 169.07L218.927 147.437Z" fill="#231F20"/>
<path opacity="0.18" d="M174.15 146.677L197.303 169.83H174.15V146.677ZM196.226 169.386L174.562 147.754V169.386H196.226Z" fill="white"/>
<path opacity="0.52" d="M173.833 146.994H196.986V170.146L173.833 146.994ZM196.542 147.437H174.91L196.542 169.07V147.437Z" fill="#231F20"/>
<path opacity="0.69" d="M151.757 146.677L174.91 169.83H151.757V146.677ZM173.833 169.386L152.201 147.754V169.386H173.833Z" fill="white"/>
<path opacity="0.67" d="M151.441 146.994H174.562V170.146L151.441 146.994ZM174.15 147.437H152.518L174.15 169.07V147.437Z" fill="#231F20"/>
<path opacity="0.39" d="M129.365 146.677L152.518 169.83H129.365V146.677ZM151.441 169.386L129.816 147.754V169.386H151.441Z" fill="#231F20"/>
<path opacity="0.62" d="M129.048 146.994H152.201V170.146L129.048 146.994ZM151.757 147.437H130.133L151.757 169.07V147.437Z" fill="white"/>
<path opacity="0.51" d="M308.498 169.07L331.65 192.223H308.498V169.07ZM330.55 191.779L308.917 170.147V191.779H330.55Z" fill="white"/>
<path opacity="0.33" d="M308.181 169.386H331.342V192.539L308.181 169.386ZM330.89 169.83H309.258L330.89 191.462V169.83Z" fill="#231F20"/>
<path opacity="0.33" d="M286.105 169.07L309.258 192.223H286.105V169.07ZM308.181 191.779L286.557 170.147V191.779H308.181Z" fill="#231F20"/>
<path opacity="0.32" d="M285.789 169.386H308.941V192.539L285.789 169.386ZM308.498 169.83H286.873L308.498 191.462V169.83Z" fill="white"/>
<path opacity="0.25" d="M263.713 169.07L286.874 192.223H263.713V169.07ZM285.789 191.779L264.164 170.147V191.779H285.789Z" fill="#231F20"/>
<path opacity="0.92" d="M263.396 169.386H286.556V192.539L263.396 169.386ZM286.105 169.83H264.481L286.105 191.462V169.83Z" fill="#231F20"/>
<path opacity="0.62" d="M241.32 169.07L264.481 192.223H241.32V169.07ZM263.396 191.779L241.771 170.147V191.779H263.396Z" fill="white"/>
<path opacity="0.89" d="M241.004 169.386H264.164V192.539L241.004 169.386ZM263.713 169.83H242.088L263.713 191.462V169.83Z" fill="white"/>
<path opacity="0.62" d="M218.904 169.07L242.065 192.223H218.904V169.07ZM240.98 191.779L219.379 170.147V191.779H240.98Z" fill="white"/>
<path opacity="0.39" d="M218.611 169.386H241.771V192.539L218.611 169.386ZM241.32 169.83H219.695L241.32 191.462V169.83Z" fill="white"/>
<path opacity="0.52" d="M196.543 169.07L219.695 192.223H196.543V169.07ZM218.611 191.779L196.986 170.147V191.779H218.611Z" fill="#231F20"/>
<path opacity="0.68" d="M196.226 169.386H219.379V192.539L196.226 169.386ZM218.927 169.83H197.303L218.904 191.462L218.927 169.83Z" fill="white"/>
<path opacity="0.38" d="M174.15 169.07L197.303 192.223H174.15V169.07ZM196.226 191.779L174.562 170.147V191.779H196.226Z" fill="#231F20"/>
<path opacity="0.44" d="M173.833 169.386H196.986V192.539L173.833 169.386ZM196.542 169.83H174.91L196.542 191.462V169.83Z" fill="white"/>
<path opacity="0.18" d="M151.757 169.07L174.91 192.223H151.757V169.07ZM173.833 191.779L152.201 170.147V191.779H173.833Z" fill="white"/>
<path opacity="0.82" d="M151.441 169.386H174.562V192.539L151.441 169.386ZM174.15 169.83H152.518L174.15 191.462V169.83Z" fill="white"/>
<path opacity="0.14" d="M129.365 169.07L152.518 192.223H129.365V169.07ZM151.441 191.779L129.816 170.147V191.779H151.441Z" fill="white"/>
<path opacity="0.49" d="M129.048 169.386H152.201V192.539L129.048 169.386ZM151.757 169.83H130.133L151.757 191.462V169.83Z" fill="#231F20"/>
</g>
<g style="mix-blend-mode:soft-light" opacity="0.35">
<path d="M129.587 12.8666V-9.526H151.979L129.587 12.8666Z" fill="#939598"/>
<path d="M174.372 12.8666V-9.526H196.765L174.372 12.8666Z" fill="#939598"/>
<path d="M196.764 124.822V102.43H219.157L196.764 124.822Z" fill="#F1F2F2"/>
<path d="M286.327 124.822V147.215H263.934L286.327 124.822Z" fill="#939598"/>
<path d="M151.979 -9.526V12.8666H129.587L151.979 -9.526Z" fill="#6D6E71"/>
<path d="M151.979 12.8676V35.2602H129.587L151.979 12.8676Z" fill="#6D6E71"/>
<path d="M129.587 35.2602V12.8676H151.979L129.587 35.2602Z" fill="#D1D3D4"/>
<path d="M151.979 35.2598V57.6524H129.587L151.979 35.2598Z" fill="#6D6E71"/>
<path d="M129.587 57.6524V35.2598H151.979L129.587 57.6524Z" fill="#939598"/>
<path d="M151.979 57.6527V80.0453H129.587L151.979 57.6527Z" fill="#D1D3D4"/>
<path d="M129.587 80.0453V57.6527H151.979L129.587 80.0453Z" fill="#D1D3D4"/>
<path d="M151.979 80.0455V102.43H129.587L151.979 80.0455Z" fill="#A7A9AC"/>
<path d="M129.587 102.43V80.0455H151.979L129.587 102.43Z" fill="#BCBEC0"/>
<path d="M151.979 102.43V124.822H129.587L151.979 102.43Z" fill="#808285"/>
<path d="M129.587 124.822V102.43H151.979L129.587 124.822Z" fill="#58595B"/>
<path d="M151.979 124.822V147.215H129.587L151.979 124.822Z" fill="#A7A9AC"/>
<path d="M129.587 147.215V124.822H151.979L129.587 147.215Z" fill="#D1D3D4"/>
<path d="M151.979 147.215V169.608H129.587L151.979 147.215Z" fill="#808285"/>
<path d="M129.587 169.608V147.215H151.979L129.587 169.608Z" fill="#939598"/>
<path d="M151.979 169.607V192H129.587L151.979 169.607Z" fill="#58595B"/>
<path d="M129.587 192V169.607H151.979L129.587 192Z" fill="#A7A9AC"/>
<path d="M174.372 -9.526V12.8666H151.979L174.372 -9.526Z" fill="#E6E7E8"/>
<path d="M151.979 12.8666V-9.526H174.372L151.979 12.8666Z" fill="#808285"/>
<path d="M174.372 12.8676V35.2602H151.979L174.372 12.8676Z" fill="#6D6E71"/>
<path d="M151.979 35.2602V12.8676H174.372L151.979 35.2602Z" fill="#939598"/>
<path d="M174.372 35.2598V57.6524H151.979L174.372 35.2598Z" fill="#939598"/>
<path d="M151.979 57.6524V35.2598H174.372L151.979 57.6524Z" fill="#D1D3D4"/>
<path d="M174.372 57.6527V80.0453H151.979L174.372 57.6527Z" fill="#58595B"/>
<path d="M151.979 80.0453V57.6527H174.372L151.979 80.0453Z" fill="#939598"/>
<path d="M174.372 80.0455V102.43H151.979L174.372 80.0455Z" fill="#808285"/>
<path d="M151.979 102.43V80.0455H174.372L151.979 102.43Z" fill="#D1D3D4"/>
<path d="M174.372 102.43V124.822H151.979L174.372 102.43Z" fill="#BCBEC0"/>
<path d="M151.979 124.822V102.43H174.372L151.979 124.822Z" fill="#808285"/>
<path d="M174.372 124.822V147.215H151.979L174.372 124.822Z" fill="#58595B"/>
<path d="M151.979 147.215V124.822H174.372L151.979 147.215Z" fill="#F1F2F2"/>
<path d="M174.372 147.215V169.608H151.979L174.372 147.215Z" fill="#E6E7E8"/>
<path d="M151.979 169.608V147.215H174.372L151.979 169.608Z" fill="#58595B"/>
<path d="M174.372 169.607V192H151.979L174.372 169.607Z" fill="#E6E7E8"/>
<path d="M151.979 192V169.607H174.372L151.979 192Z" fill="#E6E7E8"/>
<path d="M196.765 -9.526V12.8666H174.372L196.765 -9.526Z" fill="#D1D3D4"/>
<path d="M196.765 12.8676V35.2602H174.372L196.765 12.8676Z" fill="#F1F2F2"/>
<path d="M174.372 35.2602V12.8676H196.765L174.372 35.2602Z" fill="#F1F2F2"/>
<path d="M196.765 35.2598V57.6524H174.372L196.765 35.2598Z" fill="#A7A9AC"/>
<path d="M174.372 57.6524V35.2598H196.765L174.372 57.6524Z" fill="#D1D3D4"/>
<path d="M196.765 57.6527V80.0453H174.372L196.765 57.6527Z" fill="#6D6E71"/>
<path d="M174.372 80.0453V57.6527H196.765L174.372 80.0453Z" fill="#E6E7E8"/>
<path d="M196.765 80.0455V102.43H174.372L196.765 80.0455Z" fill="#D1D3D4"/>
<path d="M174.372 102.43V80.0455H196.765L174.372 102.43Z" fill="#A7A9AC"/>
<path d="M196.765 102.43V124.822H174.372L196.765 102.43Z" fill="#939598"/>
<path d="M174.372 124.822V102.43H196.765L174.372 124.822Z" fill="#A7A9AC"/>
<path d="M196.765 124.822V147.215H174.372L196.765 124.822Z" fill="#D1D3D4"/>
<path d="M174.372 147.215V124.822H196.765L174.372 147.215Z" fill="#6D6E71"/>
<path d="M196.765 147.215V169.608H174.372L196.765 147.215Z" fill="#939598"/>
<path d="M174.372 169.608V147.215H196.765L174.372 169.608Z" fill="#A7A9AC"/>
<path d="M196.765 169.607V192H174.372L196.765 169.607Z" fill="#E6E7E8"/>
<path d="M174.372 192V169.607H196.765L174.372 192Z" fill="#D1D3D4"/>
<path d="M219.157 -9.526V12.8666H196.764L219.157 -9.526Z" fill="#6D6E71"/>
<path d="M196.764 12.8666V-9.526H219.157L196.764 12.8666Z" fill="#6D6E71"/>
<path d="M219.157 12.8676V35.2602H196.764L219.157 12.8676Z" fill="#808285"/>
<path d="M196.764 35.2602V12.8676H219.157L196.764 35.2602Z" fill="#F1F2F2"/>
<path d="M219.157 35.2598V57.6524H196.764L219.157 35.2598Z" fill="#F1F2F2"/>
<path d="M196.764 57.6524V35.2598H219.157L196.764 57.6524Z" fill="#E6E7E8"/>
<path d="M219.157 57.6527V80.0453H196.764L219.157 57.6527Z" fill="#D1D3D4"/>
<path d="M196.764 80.0453V57.6527H219.157L196.764 80.0453Z" fill="#A7A9AC"/>
<path d="M219.157 80.0455V102.43H196.764L219.157 80.0455Z" fill="#808285"/>
<path d="M196.764 102.43V80.0455H219.157L196.764 102.43Z" fill="#808285"/>
<path d="M219.157 102.43V124.822H196.764L219.157 102.43Z" fill="#6D6E71"/>
<path d="M219.157 124.822V147.215H196.764L219.157 124.822Z" fill="#939598"/>
<path d="M196.764 147.215V124.822H219.157L196.764 147.215Z" fill="#939598"/>
<path d="M219.157 147.215V169.608H196.764L219.157 147.215Z" fill="#F1F2F2"/>
<path d="M196.764 169.608V147.215H219.157L196.764 169.608Z" fill="#939598"/>
<path d="M219.157 169.607V192H196.764L219.157 169.607Z" fill="#58595B"/>
<path d="M196.764 192V169.607H219.157L196.764 192Z" fill="#BCBEC0"/>
<path d="M241.549 -9.526V12.8666H219.157L241.549 -9.526Z" fill="#BCBEC0"/>
<path d="M219.157 12.8666V-9.526H241.549L219.157 12.8666Z" fill="#A7A9AC"/>
<path d="M241.549 12.8676V35.2602H219.157L241.549 12.8676Z" fill="#808285"/>
<path d="M219.157 35.2602V12.8676H241.549L219.157 35.2602Z" fill="#808285"/>
<path d="M241.549 35.2598V57.6524H219.157L241.549 35.2598Z" fill="#E6E7E8"/>
<path d="M219.157 57.6524V35.2598H241.549L219.157 57.6524Z" fill="#939598"/>
<path d="M241.549 57.6527V80.0453H219.157L241.549 57.6527Z" fill="#939598"/>
<path d="M219.157 80.0453V57.6527H241.549L219.157 80.0453Z" fill="#BCBEC0"/>
<path d="M241.549 80.0455V102.43H219.157L241.549 80.0455Z" fill="#D1D3D4"/>
<path d="M219.157 102.43V80.0455H241.549L219.157 102.43Z" fill="#808285"/>
<path d="M241.549 102.43V124.822H219.157L241.549 102.43Z" fill="#BCBEC0"/>
<path d="M219.157 124.822V102.43H241.549L219.157 124.822Z" fill="#BCBEC0"/>
<path d="M241.549 124.822V147.215H219.157L241.549 124.822Z" fill="#808285"/>
<path d="M219.157 147.215V124.822H241.549L219.157 147.215Z" fill="#808285"/>
<path d="M241.549 147.215V169.608H219.157L241.549 147.215Z" fill="#939598"/>
<path d="M219.157 169.608V147.215H241.549L219.157 169.608Z" fill="#939598"/>
<path d="M241.549 169.607V192H219.157L241.549 169.607Z" fill="#808285"/>
<path d="M219.157 192V169.607H241.549L219.157 192Z" fill="#BCBEC0"/>
<path d="M263.934 -9.526V12.8666H241.549L263.934 -9.526Z" fill="#E6E7E8"/>
<path d="M241.549 12.8666V-9.526H263.934L241.549 12.8666Z" fill="#6D6E71"/>
<path d="M263.934 12.8676V35.2602H241.549L263.934 12.8676Z" fill="#D1D3D4"/>
<path d="M241.549 35.2602V12.8676H263.934L241.549 35.2602Z" fill="#939598"/>
<path d="M263.934 35.2598V57.6524H241.549L263.934 35.2598Z" fill="#58595B"/>
<path d="M241.549 57.6524V35.2598H263.934L241.549 57.6524Z" fill="#BCBEC0"/>
<path d="M263.934 57.6527V80.0453H241.549L263.934 57.6527Z" fill="#6D6E71"/>
<path d="M241.549 80.0453V57.6527H263.934L241.549 80.0453Z" fill="#BCBEC0"/>
<path d="M263.934 102.43V124.822H241.549L263.934 102.43Z" fill="#808285"/>
<path d="M241.549 124.822V102.43H263.934L241.549 124.822Z" fill="#6D6E71"/>
<path d="M263.934 124.822V147.215H241.549L263.934 124.822Z" fill="#D1D3D4"/>
<path d="M241.549 147.215V124.822H263.934L241.549 147.215Z" fill="#6D6E71"/>
<path d="M263.934 147.215V169.608H241.549L263.934 147.215Z" fill="#A7A9AC"/>
<path d="M241.549 169.608V147.215H263.934L241.549 169.608Z" fill="#808285"/>
<path d="M263.934 169.607V192H241.549L263.934 169.607Z" fill="#939598"/>
<path d="M241.549 192V169.607H263.934L241.549 192Z" fill="#E6E7E8"/>
<path d="M286.327 -9.526V12.8666H263.934L286.327 -9.526Z" fill="#939598"/>
<path d="M263.934 12.8666V-9.526H286.327L263.934 12.8666Z" fill="#A7A9AC"/>
<path d="M286.327 12.8676V35.2602H263.934L286.327 12.8676Z" fill="#808285"/>
<path d="M263.934 35.2602V12.8676H286.327L263.934 35.2602Z" fill="#939598"/>
<path d="M286.327 35.2598V57.6524H263.934L286.327 35.2598Z" fill="#6D6E71"/>
<path d="M263.934 57.6524V35.2598H286.327L263.934 57.6524Z" fill="#BCBEC0"/>
<path d="M286.327 57.6527V80.0453H263.934L286.327 57.6527Z" fill="#BCBEC0"/>
<path d="M263.934 80.0453V57.6527H286.327L263.934 80.0453Z" fill="#6D6E71"/>
<path d="M286.327 80.0455V102.43H263.934L286.327 80.0455Z" fill="#939598"/>
<path d="M263.934 102.43V80.0455H286.327L263.934 102.43Z" fill="#6D6E71"/>
<path d="M286.327 102.43V124.822H263.934L286.327 102.43Z" fill="#939598"/>
<path d="M263.934 124.822V102.43H286.327L263.934 124.822Z" fill="#808285"/>
<path d="M263.934 147.215V124.822H286.327L263.934 147.215Z" fill="#BCBEC0"/>
<path d="M286.327 147.215V169.608H263.934L286.327 147.215Z" fill="#A7A9AC"/>
<path d="M263.934 169.608V147.215H286.327L263.934 169.608Z" fill="#E6E7E8"/>
<path d="M286.327 169.607V192H263.934L286.327 169.607Z" fill="#E6E7E8"/>
<path d="M263.934 192V169.607H286.327L263.934 192Z" fill="#BCBEC0"/>
<path d="M308.72 -9.526V12.8666H286.327L308.72 -9.526Z" fill="#BCBEC0"/>
<path d="M286.327 12.8666V-9.526H308.72L286.327 12.8666Z" fill="#BCBEC0"/>
<path d="M308.72 12.8676V35.2602H286.327L308.72 12.8676Z" fill="#A7A9AC"/>
<path d="M286.327 35.2602V12.8676H308.72L286.327 35.2602Z" fill="#D1D3D4"/>
<path d="M308.72 35.2598V57.6524H286.327L308.72 35.2598Z" fill="#BCBEC0"/>
<path d="M286.327 57.6524V35.2598H308.72L286.327 57.6524Z" fill="#6D6E71"/>
<path d="M308.72 57.6527V80.0453H286.327L308.72 57.6527Z" fill="#E6E7E8"/>
<path d="M286.327 80.0453V57.6527H308.72L286.327 80.0453Z" fill="#808285"/>
<path d="M308.72 80.0455V102.43H286.327L308.72 80.0455Z" fill="#BCBEC0"/>
<path d="M286.327 102.43V80.0455H308.72L286.327 102.43Z" fill="#6D6E71"/>
<path d="M308.72 102.43V124.822H286.327L308.72 102.43Z" fill="#808285"/>
<path d="M286.327 124.822V102.43H308.72L286.327 124.822Z" fill="#E6E7E8"/>
<path d="M308.72 124.822V147.215H286.327L308.72 124.822Z" fill="#6D6E71"/>
<path d="M286.327 147.215V124.822H308.72L286.327 147.215Z" fill="#6D6E71"/>
<path d="M308.72 147.215V169.608H286.327L308.72 147.215Z" fill="#939598"/>
<path d="M286.327 169.608V147.215H308.72L286.327 169.608Z" fill="#58595B"/>
<path d="M308.72 169.607V192H286.327L308.72 169.607Z" fill="#808285"/>
<path d="M286.327 192V169.607H308.72L286.327 192Z" fill="#6D6E71"/>
<path d="M331.112 -9.526V12.8666H308.719L331.112 -9.526Z" fill="#A7A9AC"/>
<path d="M308.719 12.8666V-9.526H331.112L308.719 12.8666Z" fill="#6D6E71"/>
<path d="M331.112 12.8676V35.2602H308.719L331.112 12.8676Z" fill="#939598"/>
<path d="M308.719 35.2602V12.8676H331.112L308.719 35.2602Z" fill="#939598"/>
<path d="M331.112 35.2598V57.6524H308.719L331.112 35.2598Z" fill="#939598"/>
<path d="M308.719 57.6524V35.2598H331.112L308.719 57.6524Z" fill="#E6E7E8"/>
<path d="M331.112 57.6527V80.0453H308.719L331.112 57.6527Z" fill="#939598"/>
<path d="M308.719 80.0453V57.6527H331.112L308.719 80.0453Z" fill="#A7A9AC"/>
<path d="M331.112 80.0455V102.43H308.719L331.112 80.0455Z" fill="#BCBEC0"/>
<path d="M308.719 102.43V80.0455H331.112L308.719 102.43Z" fill="#E6E7E8"/>
<path d="M331.112 102.43V124.822H308.719L331.112 102.43Z" fill="#939598"/>
<path d="M308.719 124.822V102.43H331.112L308.719 124.822Z" fill="#939598"/>
<path d="M331.112 124.822V147.215H308.719L331.112 124.822Z" fill="#6D6E71"/>
<path d="M308.719 147.215V124.822H331.112L308.719 147.215Z" fill="#D1D3D4"/>
<path d="M331.112 147.215V169.608H308.719L331.112 147.215Z" fill="#6D6E71"/>
<path d="M308.719 169.608V147.215H331.112L308.719 169.608Z" fill="#6D6E71"/>
<path d="M331.112 169.607V192H308.719L331.112 169.607Z" fill="#D1D3D4"/>
<path d="M308.719 192V169.607H331.112L308.719 192Z" fill="#BCBEC0"/>
</g>
<g style="mix-blend-mode:soft-light" opacity="0.35">
<path d="M-4.81659 12.8994H17.576V35.292L-4.81659 12.8994Z" fill="#808285"/>
<path d="M17.5757 35.2916H39.9683V57.6842L17.5757 35.2916Z" fill="#D1D3D4"/>
<path d="M39.9683 124.854H17.5757V102.469L39.9683 124.854Z" fill="#808285"/>
<path d="M107.138 124.854H129.531V147.247L107.138 124.854Z" fill="#E6E7E8"/>
<path d="M84.7537 169.639H107.138V192.032L84.7537 169.639Z" fill="#A7A9AC"/>
<path d="M129.531 12.899H107.138V-9.49365L129.531 12.899Z" fill="#939598"/>
<path d="M107.138 -9.49365H129.531V12.899L107.138 -9.49365Z" fill="#BCBEC0"/>
<path d="M107.138 12.899H84.7537V-9.49365L107.138 12.899Z" fill="#58595B"/>
<path d="M84.7537 -9.49365H107.138V12.899L84.7537 -9.49365Z" fill="#58595B"/>
<path d="M84.7541 12.899H62.3615V-9.49365L84.7541 12.899Z" fill="#E6E7E8"/>
<path d="M62.3615 -9.49365H84.7541V12.899L62.3615 -9.49365Z" fill="#808285"/>
<path d="M62.3612 12.899H39.9686V-9.49365L62.3612 12.899Z" fill="#BCBEC0"/>
<path d="M39.9686 -9.49365H62.3612V12.899L39.9686 -9.49365Z" fill="#D1D3D4"/>
<path d="M39.9683 12.899H17.5757V-9.49365L39.9683 12.899Z" fill="#6D6E71"/>
<path d="M17.5757 -9.49365H39.9683V12.899L17.5757 -9.49365Z" fill="#6D6E71"/>
<path d="M17.576 12.899H-4.81659V-9.49365L17.576 12.899Z" fill="#939598"/>
<path d="M-4.81659 -9.49365H17.576V12.899L-4.81659 -9.49365Z" fill="#58595B"/>
<path d="M129.531 35.292H107.138V12.8994L129.531 35.292Z" fill="#6D6E71"/>
<path d="M107.138 12.8994H129.531V35.292L107.138 12.8994Z" fill="#D1D3D4"/>
<path d="M107.138 35.292H84.7537V12.8994L107.138 35.292Z" fill="#808285"/>
<path d="M84.7537 12.8994H107.138V35.292L84.7537 12.8994Z" fill="#E6E7E8"/>
<path d="M84.7541 35.292H62.3615V12.8994L84.7541 35.292Z" fill="#F1F2F2"/>
<path d="M62.3615 12.8994H84.7541V35.292L62.3615 12.8994Z" fill="#6D6E71"/>
<path d="M62.3612 35.292H39.9686V12.8994L62.3612 35.292Z" fill="#E6E7E8"/>
<path d="M39.9686 12.8994H62.3612V35.292L39.9686 12.8994Z" fill="#6D6E71"/>
<path d="M39.9683 35.292H17.5757V12.8994L39.9683 35.292Z" fill="#A7A9AC"/>
<path d="M17.5757 12.8994H39.9683V35.292L17.5757 12.8994Z" fill="#E6E7E8"/>
<path d="M17.576 35.292H-4.81659V12.8994L17.576 35.292Z" fill="#939598"/>
<path d="M129.531 57.6842H107.138V35.2916L129.531 57.6842Z" fill="#939598"/>
<path d="M107.138 35.2916H129.531V57.6842L107.138 35.2916Z" fill="#D1D3D4"/>
<path d="M107.138 57.6842H84.7537V35.2916L107.138 57.6842Z" fill="#808285"/>
<path d="M84.7537 35.2916H107.138V57.6842L84.7537 35.2916Z" fill="#E6E7E8"/>
<path d="M84.7541 57.6842H62.3615V35.2916L84.7541 57.6842Z" fill="#E6E7E8"/>
<path d="M62.3615 35.2916H84.7541V57.6842L62.3615 35.2916Z" fill="#808285"/>
<path d="M62.3612 57.6842H39.9686V35.2916L62.3612 57.6842Z" fill="#939598"/>
<path d="M39.9686 35.2916H62.3612V57.6842L39.9686 35.2916Z" fill="#E6E7E8"/>
<path d="M39.9683 57.6842H17.5757V35.2916L39.9683 57.6842Z" fill="#6D6E71"/>
<path d="M17.576 57.6842H-4.81659V35.2916L17.576 57.6842Z" fill="#D1D3D4"/>
<path d="M-4.81659 35.2916H17.576V57.6842L-4.81659 35.2916Z" fill="#808285"/>
<path d="M129.531 80.0769H107.138V57.6843L129.531 80.0769Z" fill="#D1D3D4"/>
<path d="M107.138 57.6843H129.531V80.0769L107.138 57.6843Z" fill="#A7A9AC"/>
<path d="M107.138 80.0769H84.7537V57.6843L107.138 80.0769Z" fill="#808285"/>
<path d="M84.7537 57.6843H107.138V80.0769L84.7537 57.6843Z" fill="#BCBEC0"/>
<path d="M84.7541 80.0769H62.3615V57.6843L84.7541 80.0769Z" fill="#6D6E71"/>
<path d="M62.3615 57.6843H84.7541V80.0769L62.3615 57.6843Z" fill="#A7A9AC"/>
<path d="M62.3612 80.0769H39.9686V57.6843L62.3612 80.0769Z" fill="#808285"/>
<path d="M39.9686 57.6843H62.3612V80.0769L39.9686 57.6843Z" fill="#A7A9AC"/>
<path d="M39.9683 80.0769H17.5757V57.6843L39.9683 80.0769Z" fill="#58595B"/>
<path d="M17.5757 57.6843H39.9683V80.0769L17.5757 57.6843Z" fill="#BCBEC0"/>
<path d="M129.531 102.47H107.138V80.0774L129.531 102.47Z" fill="#58595B"/>
<path d="M107.138 80.0774H129.531V102.47L107.138 80.0774Z" fill="#808285"/>
<path d="M107.138 102.47H84.7537V80.0774L107.138 102.47Z" fill="#939598"/>
<path d="M84.7537 80.0774H107.138V102.47L84.7537 80.0774Z" fill="#939598"/>
<path d="M84.7541 102.47H62.3615V80.0774L84.7541 102.47Z" fill="#939598"/>
<path d="M62.3615 80.0774H84.7541V102.47L62.3615 80.0774Z" fill="#6D6E71"/>
<path d="M62.3612 102.47H39.9686V80.0774L62.3612 102.47Z" fill="#A7A9AC"/>
<path d="M39.9686 80.0774H62.3612V102.47L39.9686 80.0774Z" fill="#808285"/>
<path d="M39.9683 102.47H17.5757V80.0774L39.9683 102.47Z" fill="#BCBEC0"/>
<path d="M17.5757 80.0774H39.9683V102.47L17.5757 80.0774Z" fill="#D1D3D4"/>
<path d="M17.576 102.47H-4.81659V80.0774L17.576 102.47Z" fill="#F1F2F2"/>
<path d="M-4.81659 80.0774H17.576V102.47L-4.81659 80.0774Z" fill="#808285"/>
<path d="M129.531 124.854H107.138V102.469L129.531 124.854Z" fill="#F1F2F2"/>
<path d="M107.138 102.469H129.531V124.854L107.138 102.469Z" fill="#58595B"/>
<path d="M107.138 124.854H84.7537V102.469L107.138 124.854Z" fill="#939598"/>
<path d="M84.7537 102.469H107.138V124.854L84.7537 102.469Z" fill="#D1D3D4"/>
<path d="M84.7541 124.854H62.3615V102.469L84.7541 124.854Z" fill="#939598"/>
<path d="M62.3615 102.469H84.7541V124.854L62.3615 102.469Z" fill="#A7A9AC"/>
<path d="M62.3612 124.854H39.9686V102.469L62.3612 124.854Z" fill="#58595B"/>
<path d="M39.9686 102.469H62.3612V124.854L39.9686 102.469Z" fill="#BCBEC0"/>
<path d="M17.5757 102.469H39.9683V124.854L17.5757 102.469Z" fill="#BCBEC0"/>
<path d="M17.576 124.854H-4.81659V102.469L17.576 124.854Z" fill="#939598"/>
<path d="M-4.81659 102.469H17.576V124.854L-4.81659 102.469Z" fill="#6D6E71"/>
<path d="M129.531 147.247H107.138V124.854L129.531 147.247Z" fill="#58595B"/>
<path d="M107.138 147.247H84.7537V124.854L107.138 147.247Z" fill="#D1D3D4"/>
<path d="M84.7537 124.854H107.138V147.247L84.7537 124.854Z" fill="#BCBEC0"/>
<path d="M84.7541 147.247H62.3615V124.854L84.7541 147.247Z" fill="#6D6E71"/>
<path d="M62.3615 124.854H84.7541V147.247L62.3615 124.854Z" fill="#6D6E71"/>
<path d="M62.3612 147.247H39.9686V124.854L62.3612 147.247Z" fill="#A7A9AC"/>
<path d="M39.9686 124.854H62.3612V147.247L39.9686 124.854Z" fill="#939598"/>
<path d="M39.9683 147.247H17.5757V124.854L39.9683 147.247Z" fill="#A7A9AC"/>
<path d="M17.5757 124.854H39.9683V147.247L17.5757 124.854Z" fill="#BCBEC0"/>
<path d="M17.576 147.247H-4.81659V124.854L17.576 147.247Z" fill="#808285"/>
<path d="M-4.81659 124.854H17.576V147.247L-4.81659 124.854Z" fill="#BCBEC0"/>
<path d="M129.531 169.64H107.138V147.247L129.531 169.64Z" fill="#D1D3D4"/>
<path d="M107.138 147.247H129.531V169.64L107.138 147.247Z" fill="#E6E7E8"/>
<path d="M107.138 169.64H84.7537V147.247L107.138 169.64Z" fill="#E6E7E8"/>
<path d="M84.7537 147.247H107.138V169.64L84.7537 147.247Z" fill="#E6E7E8"/>
<path d="M84.7541 169.64H62.3615V147.247L84.7541 169.64Z" fill="#808285"/>
<path d="M62.3615 147.247H84.7541V169.64L62.3615 147.247Z" fill="#808285"/>
<path d="M62.3612 169.64H39.9686V147.247L62.3612 169.64Z" fill="#D1D3D4"/>
<path d="M39.9686 147.247H62.3612V169.64L39.9686 147.247Z" fill="#6D6E71"/>
<path d="M39.9683 169.64H17.5757V147.247L39.9683 169.64Z" fill="#6D6E71"/>
<path d="M17.5757 147.247H39.9683V169.64L17.5757 147.247Z" fill="#6D6E71"/>
<path d="M17.576 169.64H-4.81659V147.247L17.576 169.64Z" fill="#E6E7E8"/>
<path d="M-4.81659 147.247H17.576V169.64L-4.81659 147.247Z" fill="#A7A9AC"/>
<path d="M129.531 192.032H107.138V169.639L129.531 192.032Z" fill="#E6E7E8"/>
<path d="M107.138 169.639H129.531V192.032L107.138 169.639Z" fill="#A7A9AC"/>
<path d="M107.138 192.032H84.7537V169.639L107.138 192.032Z" fill="#A7A9AC"/>
<path d="M84.7541 192.032H62.3615V169.639L84.7541 192.032Z" fill="#808285"/>
<path d="M62.3615 169.639H84.7541V192.032L62.3615 169.639Z" fill="#808285"/>
<path d="M62.3612 192.032H39.9686V169.639L62.3612 192.032Z" fill="#BCBEC0"/>
<path d="M39.9686 169.639H62.3612V192.032L39.9686 169.639Z" fill="#D1D3D4"/>
<path d="M39.9683 192.032H17.5757V169.639L39.9683 192.032Z" fill="#6D6E71"/>
<path d="M17.5757 169.639H39.9683V192.032L17.5757 169.639Z" fill="#A7A9AC"/>
<path d="M17.576 192.032H-4.81659V169.639L17.576 192.032Z" fill="#58595B"/>
<path d="M-4.81659 169.639H17.576V192.032L-4.81659 169.639Z" fill="#A7A9AC"/>
</g>
<g style="mix-blend-mode:overlay" opacity="0.3">
<path opacity="0.92" d="M106.917 -10.0325L130.077 13.1282H106.917V-10.0325ZM128.993 12.6769L107.368 -8.94768V12.6769H128.993Z" fill="white"/>
<path opacity="0.12" d="M106.6 -9.71558H129.761V13.4372L106.6 -9.71558ZM129.309 -9.26424H107.685L129.309 12.3603V-9.26424Z" fill="white"/>
<path opacity="0.74" d="M84.5242 -10.0325L107.685 13.1282H84.5242V-10.0325ZM106.6 12.6769L84.9755 -8.94768V12.6769H106.6Z" fill="#231F20"/>
<path opacity="0.98" d="M84.2074 -9.71558H107.368V13.4372L84.2074 -9.71558ZM106.917 -9.26424H85.2922L106.917 12.3603V-9.26424Z" fill="#231F20"/>
<path opacity="0.56" d="M62.1235 -10.0325L85.2841 13.1282H62.1235V-10.0325ZM84.1994 12.6769L62.5748 -8.94768V12.6769H84.1994Z" fill="white"/>
<path opacity="0.74" d="M61.8145 -9.71558H84.9751V13.4372L61.8145 -9.71558ZM84.5238 -9.26424H62.9151L84.5396 12.3603L84.5238 -9.26424Z" fill="white"/>
<path d="M39.7469 -10.0325L62.9155 13.1282H39.7469V-10.0325ZM61.8148 12.6769L40.1903 -8.94768V12.6769H61.8148Z" fill="#231F20"/>
<path opacity="0.55" d="M39.4301 -9.71558H62.5829V13.4372L39.4301 -9.71558ZM62.1315 -9.26424H40.507L62.1236 12.3603L62.1315 -9.26424Z" fill="white"/>
<path opacity="0.64" d="M17.3539 -10.0325L40.5067 13.1282H17.3539V-10.0325ZM39.4298 12.6769L17.7815 -8.94768V12.6769H39.4298Z" fill="#231F20"/>
<path opacity="0.48" d="M17.0372 -9.71558H40.19V13.4372L17.0372 -9.71558ZM39.7466 -9.26424H18.1141L39.7466 12.3603V-9.26424Z" fill="#231F20"/>
<path opacity="0.17" d="M-5.03857 -10.0325L18.1142 13.1282H-5.03857V-10.0325ZM17.0373 12.6769L-4.59516 -8.94768V12.6769H17.0373Z" fill="#231F20"/>
<path opacity="0.22" d="M-5.35498 -9.71558H17.7819V13.4372L-5.35498 -9.71558ZM17.3544 -9.26424H-4.27811L17.3544 12.3603V-9.26424Z" fill="#231F20"/>
<path opacity="0.59" d="M106.917 12.3604L130.077 35.5131H106.917V12.3604ZM128.993 35.0697L107.368 13.4372V35.0697H128.993Z" fill="white"/>
<path opacity="0.69" d="M106.6 12.6771H129.761V35.8299L106.6 12.6771ZM129.309 13.1285H107.685L129.309 34.753V13.1285Z" fill="#231F20"/>
<path opacity="0.61" d="M84.5242 12.3604L107.685 35.5131H84.5242V12.3604ZM106.6 35.0697L84.9755 13.4372V35.0697H106.6Z" fill="white"/>
<path opacity="0.88" d="M84.2074 12.6771H107.368V35.8299L84.2074 12.6771ZM106.917 13.1285H85.2922L106.917 34.753V13.1285Z" fill="#231F20"/>
<path opacity="0.74" d="M62.1235 12.3604L85.2841 35.5131H62.1235V12.3604ZM84.1994 35.0697L62.5748 13.4372V35.0697H84.1994Z" fill="white"/>
<path opacity="0.73" d="M61.8145 12.6771H84.9751V35.8299L61.8145 12.6771ZM84.5238 13.1285H62.9151L84.5396 34.753L84.5238 13.1285Z" fill="#231F20"/>
<path opacity="0.67" d="M39.7469 12.3604L62.9155 35.5131H39.7469V12.3604ZM61.8148 35.0697L40.1903 13.4372V35.0697H61.8148Z" fill="white"/>
<path opacity="0.49" d="M39.4301 12.6771H62.5829V35.8299L39.4301 12.6771ZM62.1315 13.1285H40.507L62.1236 34.753L62.1315 13.1285Z" fill="#231F20"/>
<path opacity="0.9" d="M17.3539 12.3604L40.5067 35.5131H17.3539V12.3604ZM39.4298 35.0697L17.7815 13.4372V35.0697H39.4298Z" fill="white"/>
<path opacity="0.32" d="M17.0372 12.6771H40.19V35.8299L17.0372 12.6771ZM39.7466 13.1285H18.1141L39.7466 34.753V13.1285Z" fill="#231F20"/>
<path opacity="0.26" d="M-5.03857 12.3604L18.1142 35.5131H-5.03857V12.3604ZM17.0373 35.0697L-4.59516 13.4372V35.0697H17.0373Z" fill="white"/>
<path opacity="0.47" d="M-5.35498 12.6771H17.7819V35.8299L-5.35498 12.6771ZM17.3544 13.1285H-4.27811L17.3544 34.753V13.1285Z" fill="white"/>
<path opacity="0.91" d="M106.917 34.7534L130.077 57.8903H106.917V34.7534ZM128.993 57.4628L107.368 35.8303V57.4628H128.993Z" fill="#231F20"/>
<path opacity="0.68" d="M106.6 35.0701H129.761V58.2228L106.6 35.0701ZM129.309 35.5135H107.685L129.309 57.146V35.5135Z" fill="#231F20"/>
<path opacity="0.86" d="M84.5242 34.7534L107.685 57.8903H84.5242V34.7534ZM106.6 57.4628L84.9755 35.8303V57.4628H106.6Z" fill="#231F20"/>
<path d="M84.2074 35.0701H107.368V58.2228L84.2074 35.0701ZM106.917 35.5135H85.2922L106.917 57.146V35.5135Z" fill="#231F20"/>
<path opacity="0.88" d="M62.1235 34.7534L85.2921 57.8903H62.1235V34.7534ZM84.1994 57.4628L62.5748 35.8303V57.4628H84.1994Z" fill="white"/>
<path opacity="0.23" d="M61.8145 35.0701H84.9751V58.2228L61.8145 35.0701ZM84.5238 35.5135H62.9151L84.5396 57.146L84.5238 35.5135Z" fill="#231F20"/>
<path opacity="0.79" d="M39.7469 34.7534L62.9155 57.8903H39.7469V34.7534ZM61.8148 57.4628L40.1903 35.8303V57.4628H61.8148Z" fill="#231F20"/>
<path opacity="0.3" d="M39.4301 35.0701H62.5829V58.2228L39.4301 35.0701ZM62.1315 35.5135H40.507L62.1236 57.146L62.1315 35.5135Z" fill="#231F20"/>
<path opacity="0.25" d="M17.3539 34.7534L40.5067 57.8903H17.3539V34.7534ZM39.4298 57.4628L17.7815 35.8303V57.4628H39.4298Z" fill="#231F20"/>
<path opacity="0.43" d="M17.0372 35.0701H40.19V58.2228L17.0372 35.0701ZM39.7466 35.5135H18.1141L39.7466 57.146V35.5135Z" fill="#231F20"/>
<path d="M-5.03857 34.7534L18.1142 57.8903H-5.03857V34.7534ZM17.0373 57.4628L-4.59516 35.8303V57.4628H17.0373Z" fill="white"/>
<path opacity="0.61" d="M-5.35498 35.0701H17.7819V58.2228L-5.35498 35.0701ZM17.3544 35.5135H-4.27811L17.3544 57.146V35.5135Z" fill="white"/>
<path opacity="0.69" d="M106.917 57.1461L130.077 80.2989H106.917V57.1461ZM128.993 79.8555L107.368 58.223V79.8555H128.993Z" fill="#231F20"/>
<path opacity="0.42" d="M106.6 57.4629H129.761V80.6156L106.6 57.4629ZM129.309 57.9063H107.685L129.309 79.5388V57.9063Z" fill="#231F20"/>
<path opacity="0.13" d="M84.5242 57.1461L107.685 80.2989H84.5242V57.1461ZM106.6 79.8555L84.9755 58.223V79.8555H106.6Z" fill="#231F20"/>
<path opacity="0.86" d="M84.2074 57.4629H107.368V80.6156L84.2074 57.4629ZM106.917 57.9063H85.2922L106.917 79.5388V57.9063Z" fill="white"/>
<path opacity="0.39" d="M62.1235 57.1461L85.2841 80.2989H62.1235V57.1461ZM84.1994 79.8555L62.5748 58.223V79.8555H84.1994Z" fill="white"/>
<path opacity="0.39" d="M61.8145 57.4629H84.9751V80.6156L61.8145 57.4629ZM84.5238 57.9063H62.9151L84.5396 79.5388L84.5238 57.9063Z" fill="white"/>
<path opacity="0.99" d="M39.7469 57.1461L62.9155 80.2989H39.7469V57.1461ZM61.8148 79.8555L40.1903 58.223V79.8555H61.8148Z" fill="white"/>
<path opacity="0.83" d="M39.4301 57.4629H62.5829V80.6156L39.4301 57.4629ZM62.1236 57.8905H40.507L62.1236 79.5388V57.8905Z" fill="#231F20"/>
<path opacity="0.33" d="M17.3539 57.1461L40.5067 80.2989H17.3539V57.1461ZM39.4298 79.8555L17.7815 58.223V79.8555H39.4298Z" fill="white"/>
<path opacity="0.18" d="M17.0372 57.4629H40.19V80.6156L17.0372 57.4629ZM39.7466 57.9063H18.1141L39.7466 79.5388V57.9063Z" fill="#231F20"/>
<path opacity="0.14" d="M106.917 79.5378L130.077 102.691H106.917V79.5378ZM128.993 102.231L107.368 80.6147V102.231H128.993Z" fill="#231F20"/>
<path opacity="0.69" d="M106.6 79.8547H129.761V103.023L106.6 79.8547ZM129.309 80.2982H107.685L129.309 101.923V80.2982Z" fill="#231F20"/>
<path opacity="0.73" d="M84.5242 79.5378L107.685 102.691H84.5242V79.5378ZM106.6 102.231L84.9755 80.6147V102.231H106.6Z" fill="#231F20"/>
<path opacity="0.79" d="M84.2074 79.8547H107.368V103.023L84.2074 79.8547ZM106.917 80.2982H85.2922L106.917 101.923V80.2982Z" fill="white"/>
<path opacity="0.72" d="M62.1235 79.5378L85.2841 102.691H62.1235V79.5378ZM84.2073 102.231L62.5827 80.6147V102.231H84.2073Z" fill="white"/>
<path opacity="0.74" d="M61.8145 79.8547H84.9751V103.023L61.8145 79.8547ZM84.5238 80.2982H62.9151L84.5396 101.923L84.5238 80.2982Z" fill="#231F20"/>
<path opacity="0.29" d="M39.7469 79.5378L62.9155 102.691H39.7469V79.5378ZM61.8148 102.231L40.1903 80.6147V102.231H61.8148Z" fill="#231F20"/>
<path opacity="0.57" d="M39.4301 79.8547H62.5829V103.023L39.4301 79.8547ZM62.1315 80.2982H40.507L62.1236 101.923L62.1315 80.2982Z" fill="#231F20"/>
<path opacity="0.94" d="M17.3539 79.5378L40.5067 102.691H17.3539V79.5378ZM39.4298 102.231L17.7815 80.6147V102.231H39.4298Z" fill="#231F20"/>
<path opacity="0.43" d="M17.0372 79.8547H40.19V103.023L17.0372 79.8547ZM39.7466 80.2982H18.1141L39.7466 101.923V80.2982Z" fill="#231F20"/>
<path opacity="0.15" d="M-5.03857 79.5378L18.1142 102.691H-5.03857V79.5378ZM17.0373 102.231L-4.59516 80.6147V102.231H17.0373Z" fill="white"/>
<path opacity="0.28" d="M-5.35498 79.8547H17.7819V103.023L-5.35498 79.8547ZM17.3544 80.2982H-4.27811L17.3544 101.923V80.2982Z" fill="#231F20"/>
<path opacity="0.37" d="M106.917 101.923L130.077 125.084H106.917V101.923ZM128.993 124.632L107.368 103.024V124.648L128.993 124.632Z" fill="white"/>
<path opacity="0.26" d="M106.6 102.232H129.761V125.392L106.6 102.232ZM129.309 102.683H107.685L129.309 124.308V102.683Z" fill="#231F20"/>
<path opacity="0.22" d="M84.5242 101.923L107.685 125.084H84.5242V101.923ZM106.6 124.632L84.9755 103.024V124.648L106.6 124.632Z" fill="white"/>
<path opacity="0.52" d="M84.2074 102.232H107.368V125.392L84.2074 102.232ZM106.917 102.683H85.2922L106.917 124.308V102.683Z" fill="white"/>
<path opacity="0.97" d="M62.1235 101.923L85.2841 125.084H62.1235V101.923ZM84.1994 124.632L62.5827 103.024V124.648L84.1994 124.632Z" fill="#231F20"/>
<path opacity="0.43" d="M61.8145 102.232H84.9751V125.392L61.8145 102.232ZM84.5238 102.683H62.9151L84.5396 124.308L84.5238 102.683Z" fill="#231F20"/>
<path opacity="0.37" d="M39.7469 101.923L62.9155 125.084H39.7469V101.923ZM61.8148 124.632L40.1903 103.024V124.648L61.8148 124.632Z" fill="white"/>
<path opacity="0.74" d="M39.4301 102.232H62.5829V125.392L39.4301 102.232ZM62.1315 102.683H40.507L62.1236 124.316L62.1315 102.683Z" fill="white"/>
<path opacity="0.76" d="M17.3539 101.923L40.5067 125.084H17.3539V101.923ZM39.4298 124.632L17.7815 103.024V124.648L39.4298 124.632Z" fill="#231F20"/>
<path opacity="0.11" d="M17.0372 102.232H40.19V125.392L17.0372 102.232ZM39.7466 102.683H18.1141L39.7466 124.308V102.683Z" fill="white"/>
<path opacity="0.17" d="M-5.03857 101.923L18.1142 125.084H-5.03857V101.923ZM17.0373 124.632L-4.59516 103.024V124.648L17.0373 124.632Z" fill="white"/>
<path opacity="0.36" d="M-5.35498 102.232H17.7819V125.392L-5.35498 102.232ZM17.3544 102.683H-4.27811L17.3544 124.308V102.683Z" fill="#231F20"/>
<path opacity="0.58" d="M106.917 124.315L130.077 147.476H106.917V124.315ZM128.993 147.024L107.368 125.4V147.024H128.993Z" fill="white"/>
<path opacity="0.87" d="M106.6 124.633H129.761V147.794L106.6 124.633ZM129.309 125.084H107.685L129.309 146.709V125.084Z" fill="white"/>
<path opacity="0.15" d="M84.5242 124.315L107.685 147.476H84.5242V124.315ZM106.6 147.024L84.9755 125.4V147.024H106.6Z" fill="#231F20"/>
<path opacity="0.79" d="M84.2074 124.633H107.368V147.794L84.2074 124.633ZM106.917 125.084H85.2922L106.917 146.709V125.084Z" fill="white"/>
<path opacity="0.48" d="M62.1235 124.315L85.2841 147.476H62.1235V124.315ZM84.1994 147.024L62.5748 125.4V147.024H84.1994Z" fill="white"/>
<path opacity="0.21" d="M61.8145 124.633H84.9751V147.794L61.8145 124.633ZM84.5238 125.084H62.9151L84.5396 146.709L84.5238 125.084Z" fill="#231F20"/>
<path opacity="0.51" d="M39.7469 124.315L62.9155 147.476H39.7469V124.315ZM61.8148 147.024L40.1903 125.4V147.024H61.8148Z" fill="#231F20"/>
<path opacity="0.25" d="M39.4301 124.633H62.5829V147.794L39.4301 124.633ZM62.1315 125.084H40.507L62.1236 146.709L62.1315 125.084Z" fill="#231F20"/>
<path opacity="0.38" d="M17.3539 124.315L40.5067 147.476H17.3539V124.315ZM39.4298 147.024L17.7815 125.4V147.024H39.4298Z" fill="#231F20"/>
<path opacity="0.41" d="M17.0372 124.633H40.19V147.794L17.0372 124.633ZM39.7466 125.084H18.1141L39.7466 146.709V125.084Z" fill="#231F20"/>
<path opacity="0.75" d="M-5.03857 124.315L18.1142 147.476H-5.03857V124.315ZM17.0373 147.024L-4.59516 125.4V147.024H17.0373Z" fill="#231F20"/>
<path opacity="0.53" d="M-5.35498 124.633H17.7819V147.794L-5.35498 124.633ZM17.3544 125.084H-4.27811L17.3544 146.709V125.084Z" fill="#231F20"/>
<path opacity="0.85" d="M106.917 146.709L130.077 169.862H106.917V146.709ZM128.993 169.418L107.368 147.794V169.418H128.993Z" fill="#231F20"/>
<path opacity="0.71" d="M106.6 147.024H129.761V170.177L106.6 147.024ZM129.309 147.476H107.685L129.309 169.1V147.476Z" fill="#231F20"/>
<path opacity="0.61" d="M84.5242 146.709L107.685 169.862H84.5242V146.709ZM106.6 169.418L84.9755 147.794V169.418H106.6Z" fill="white"/>
<path d="M84.2074 147.024H107.368V170.177L84.2074 147.024ZM106.917 147.476H85.2922L106.917 169.1V147.476Z" fill="#231F20"/>
<path opacity="0.44" d="M62.1235 146.709L85.2841 169.862H62.1235V146.709ZM84.1994 169.418L62.5748 147.794V169.418H84.1994Z" fill="#231F20"/>
<path opacity="0.45" d="M61.8145 147.024H84.9751V170.177L61.8145 147.024ZM84.5238 147.476H62.9151L84.5396 169.1L84.5238 147.476Z" fill="white"/>
<path opacity="0.33" d="M39.7469 146.709L62.9155 169.862H39.7469V146.709ZM61.8148 169.418L40.1903 147.794V169.418H61.8148Z" fill="#231F20"/>
<path opacity="0.67" d="M39.4301 147.024H62.5829V170.177L39.4301 147.024ZM62.1315 147.476H40.507L62.1236 169.1L62.1315 147.476Z" fill="white"/>
<path opacity="0.32" d="M17.3539 146.709L40.5067 169.862H17.3539V146.709ZM39.4298 169.418L17.7815 147.794V169.418H39.4298Z" fill="white"/>
<path opacity="0.54" d="M17.0372 147.024H40.19V170.177L17.0372 147.024ZM39.7466 147.476H18.1141L39.7466 169.1V147.476Z" fill="#231F20"/>
<path opacity="0.1" d="M-5.03857 146.709L18.1142 169.862H-5.03857V146.709ZM17.0373 169.418L-4.59516 147.794V169.418H17.0373Z" fill="white"/>
<path opacity="0.45" d="M-5.35498 147.024H17.7819V170.177L-5.35498 147.024ZM17.3544 147.476H-4.27811L17.3544 169.1V147.476Z" fill="#231F20"/>
<path opacity="0.75" d="M106.917 169.101L130.077 192.253H106.917V169.101ZM128.993 191.81L107.368 170.177V191.81H128.993Z" fill="white"/>
<path opacity="0.57" d="M106.6 169.417H129.761V192.57L106.6 169.417ZM129.309 169.861H107.685L129.309 191.493V169.861Z" fill="white"/>
<path opacity="0.92" d="M84.5242 169.101L107.685 192.253H84.5242V169.101ZM106.6 191.81L84.9755 170.177V191.81H106.6Z" fill="white"/>
<path opacity="0.54" d="M84.2074 169.417H107.368V192.57L84.2074 169.417ZM106.917 169.861H85.2922L106.917 191.493V169.861Z" fill="#231F20"/>
<path opacity="0.55" d="M62.1235 169.101L85.2841 192.253H62.1235V169.101ZM84.1994 191.81L62.5748 170.177V191.81H84.1994Z" fill="white"/>
<path opacity="0.72" d="M61.8145 169.417H84.9751V192.57L61.8145 169.417ZM84.5238 169.861H62.9151L84.5396 191.493L84.5238 169.861Z" fill="white"/>
<path opacity="0.8" d="M39.7469 169.101L62.9155 192.253H39.7469V169.101ZM61.8148 191.81L40.1903 170.177V191.81H61.8148Z" fill="#231F20"/>
<path opacity="0.45" d="M39.4301 169.417H62.5829V192.57L39.4301 169.417ZM62.1315 169.861H40.507L62.1236 191.493L62.1315 169.861Z" fill="white"/>
<path opacity="0.73" d="M17.3539 169.101L40.5067 192.253H17.3539V169.101ZM39.4298 191.81L17.7815 170.177V191.81H39.4298Z" fill="#231F20"/>
<path opacity="0.56" d="M17.0372 169.417H40.19V192.57L17.0372 169.417ZM39.7466 169.861H18.1141L39.7466 191.493V169.861Z" fill="white"/>
<path opacity="0.3" d="M-5.03857 169.101L18.1142 192.253H-5.03857V169.101ZM17.0373 191.81L-4.59516 170.177V191.81H17.0373Z" fill="#231F20"/>
<path opacity="0.4" d="M-5.35498 169.417H17.7819V192.57L-5.35498 169.417ZM17.3544 169.861H-4.27811L17.3544 191.493V169.861Z" fill="#231F20"/>
</g>
<g style="mix-blend-mode:soft-light" opacity="0.35">
<path d="M17.5757 192.032V169.639H39.9683L17.5757 192.032Z" fill="#E6E7E8"/>
<path d="M39.9686 12.899V-9.49365H62.3612L39.9686 12.899Z" fill="#6D6E71"/>
<path d="M84.7537 80.0769V57.6843H107.138L84.7537 80.0769Z" fill="#808285"/>
<path d="M17.576 -9.49365V12.899H-4.81659L17.576 -9.49365Z" fill="#F1F2F2"/>
<path d="M-4.81659 12.899V-9.49365H17.576L-4.81659 12.899Z" fill="#BCBEC0"/>
<path d="M17.576 12.8994V35.292H-4.81659L17.576 12.8994Z" fill="#D1D3D4"/>
<path d="M-4.81659 35.292V12.8994H17.576L-4.81659 35.292Z" fill="#58595B"/>
<path d="M17.576 35.2916V57.6842H-4.81659L17.576 35.2916Z" fill="#BCBEC0"/>
<path d="M-4.81659 57.6842V35.2916H17.576L-4.81659 57.6842Z" fill="#BCBEC0"/>
<path d="M17.576 57.6843V80.0769H-4.81659L17.576 57.6843Z" fill="#808285"/>
<path d="M-4.81659 80.0769V57.6843H17.576L-4.81659 80.0769Z" fill="#808285"/>
<path d="M17.576 80.0774V102.47H-4.81659L17.576 80.0774Z" fill="#939598"/>
<path d="M-4.81659 102.47V80.0774H17.576L-4.81659 102.47Z" fill="#F1F2F2"/>
<path d="M17.576 102.469V124.854H-4.81659L17.576 102.469Z" fill="#A7A9AC"/>
<path d="M-4.81659 124.854V102.469H17.576L-4.81659 124.854Z" fill="#A7A9AC"/>
<path d="M17.576 124.854V147.247H-4.81659L17.576 124.854Z" fill="#6D6E71"/>
<path d="M-4.81659 147.247V124.854H17.576L-4.81659 147.247Z" fill="#939598"/>
<path d="M17.576 147.247V169.64H-4.81659L17.576 147.247Z" fill="#939598"/>
<path d="M-4.81659 169.64V147.247H17.576L-4.81659 169.64Z" fill="#F1F2F2"/>
<path d="M17.576 169.639V192.032H-4.81659L17.576 169.639Z" fill="#6D6E71"/>
<path d="M-4.81659 192.032V169.639H17.576L-4.81659 192.032Z" fill="#939598"/>
<path d="M39.9683 -9.49365V12.899H17.5757L39.9683 -9.49365Z" fill="#A7A9AC"/>
<path d="M17.5757 12.899V-9.49365H39.9683L17.5757 12.899Z" fill="#D1D3D4"/>
<path d="M39.9683 12.8994V35.292H17.5757L39.9683 12.8994Z" fill="#A7A9AC"/>
<path d="M17.5757 35.292V12.8994H39.9683L17.5757 35.292Z" fill="#58595B"/>
<path d="M39.9683 35.2916V57.6842H17.5757L39.9683 35.2916Z" fill="#E6E7E8"/>
<path d="M17.5757 57.6842V35.2916H39.9683L17.5757 57.6842Z" fill="#A7A9AC"/>
<path d="M39.9683 57.6843V80.0769H17.5757L39.9683 57.6843Z" fill="#E6E7E8"/>
<path d="M17.5757 80.0769V57.6843H39.9683L17.5757 80.0769Z" fill="#D1D3D4"/>
<path d="M39.9683 80.0774V102.47H17.5757L39.9683 80.0774Z" fill="#D1D3D4"/>
<path d="M17.5757 102.47V80.0774H39.9683L17.5757 102.47Z" fill="#D1D3D4"/>
<path d="M39.9683 102.469V124.854H17.5757L39.9683 102.469Z" fill="#D1D3D4"/>
<path d="M17.5757 124.854V102.469H39.9683L17.5757 124.854Z" fill="#D1D3D4"/>
<path d="M39.9683 124.854V147.247H17.5757L39.9683 124.854Z" fill="#6D6E71"/>
<path d="M17.5757 147.247V124.854H39.9683L17.5757 147.247Z" fill="#939598"/>
<path d="M39.9683 147.247V169.64H17.5757L39.9683 147.247Z" fill="#E6E7E8"/>
<path d="M17.5757 169.64V147.247H39.9683L17.5757 169.64Z" fill="#E6E7E8"/>
<path d="M39.9683 169.639V192.032H17.5757L39.9683 169.639Z" fill="#6D6E71"/>
<path d="M62.3612 -9.49365V12.899H39.9686L62.3612 -9.49365Z" fill="#A7A9AC"/>
<path d="M62.3612 12.8994V35.292H39.9686L62.3612 12.8994Z" fill="#D1D3D4"/>
<path d="M39.9686 35.292V12.8994H62.3612L39.9686 35.292Z" fill="#939598"/>
<path d="M62.3612 35.2916V57.6842H39.9686L62.3612 35.2916Z" fill="#E6E7E8"/>
<path d="M39.9686 57.6842V35.2916H62.3612L39.9686 57.6842Z" fill="#58595B"/>
<path d="M62.3612 57.6843V80.0769H39.9686L62.3612 57.6843Z" fill="#BCBEC0"/>
<path d="M39.9686 80.0769V57.6843H62.3612L39.9686 80.0769Z" fill="#A7A9AC"/>
<path d="M62.3612 80.0774V102.47H39.9686L62.3612 80.0774Z" fill="#A7A9AC"/>
<path d="M39.9686 102.47V80.0774H62.3612L39.9686 102.47Z" fill="#58595B"/>
<path d="M62.3612 102.469V124.854H39.9686L62.3612 102.469Z" fill="#E6E7E8"/>
<path d="M39.9686 124.854V102.469H62.3612L39.9686 124.854Z" fill="#A7A9AC"/>
<path d="M62.3612 124.854V147.247H39.9686L62.3612 124.854Z" fill="#D1D3D4"/>
<path d="M39.9686 147.247V124.854H62.3612L39.9686 147.247Z" fill="#BCBEC0"/>
<path d="M62.3612 169.639V192.032H39.9686L62.3612 169.639Z" fill="#939598"/>
<path d="M39.9686 192.032V169.639H62.3612L39.9686 192.032Z" fill="#808285"/>
<path d="M84.7541 -9.49365V12.899H62.3615L84.7541 -9.49365Z" fill="#939598"/>
<path d="M62.3615 12.899V-9.49365H84.7541L62.3615 12.899Z" fill="#BCBEC0"/>
<path d="M84.7541 12.8994V35.292H62.3615L84.7541 12.8994Z" fill="#808285"/>
<path d="M62.3615 35.292V12.8994H84.7541L62.3615 35.292Z" fill="#BCBEC0"/>
<path d="M84.7541 35.2916V57.6842H62.3615L84.7541 35.2916Z" fill="#939598"/>
<path d="M62.3615 57.6842V35.2916H84.7541L62.3615 57.6842Z" fill="#939598"/>
<path d="M84.7541 57.6843V80.0769H62.3615L84.7541 57.6843Z" fill="#E6E7E8"/>
<path d="M62.3615 80.0769V57.6843H84.7541L62.3615 80.0769Z" fill="#6D6E71"/>
<path d="M84.7541 80.0774V102.47H62.3615L84.7541 80.0774Z" fill="#939598"/>
<path d="M62.3615 102.47V80.0774H84.7541L62.3615 102.47Z" fill="#58595B"/>
<path d="M84.7541 102.469V124.854H62.3615L84.7541 102.469Z" fill="#E6E7E8"/>
<path d="M62.3615 124.854V102.469H84.7541L62.3615 124.854Z" fill="#BCBEC0"/>
<path d="M84.7541 124.854V147.247H62.3615L84.7541 124.854Z" fill="#939598"/>
<path d="M62.3615 147.247V124.854H84.7541L62.3615 147.247Z" fill="#6D6E71"/>
<path d="M84.7541 147.247V169.64H62.3615L84.7541 147.247Z" fill="#E6E7E8"/>
<path d="M62.3615 169.64V147.247H84.7541L62.3615 169.64Z" fill="#E6E7E8"/>
<path d="M84.7541 169.639V192.032H62.3615L84.7541 169.639Z" fill="#E6E7E8"/>
<path d="M62.3615 192.032V169.639H84.7541L62.3615 192.032Z" fill="#E6E7E8"/>
<path d="M107.138 -9.49365V12.899H84.7537L107.138 -9.49365Z" fill="#A7A9AC"/>
<path d="M84.7537 12.899V-9.49365H107.138L84.7537 12.899Z" fill="#F1F2F2"/>
<path d="M107.138 12.8994V35.292H84.7537L107.138 12.8994Z" fill="#808285"/>
<path d="M84.7537 35.292V12.8994H107.138L84.7537 35.292Z" fill="#808285"/>
<path d="M107.138 35.2916V57.6842H84.7537L107.138 35.2916Z" fill="#6D6E71"/>
<path d="M84.7537 57.6842V35.2916H107.138L84.7537 57.6842Z" fill="#D1D3D4"/>
<path d="M107.138 57.6843V80.0769H84.7537L107.138 57.6843Z" fill="#808285"/>
<path d="M107.138 80.0774V102.47H84.7537L107.138 80.0774Z" fill="#E6E7E8"/>
<path d="M84.7537 102.47V80.0774H107.138L84.7537 102.47Z" fill="#939598"/>
<path d="M107.138 102.469V124.854H84.7537L107.138 102.469Z" fill="#58595B"/>
<path d="M84.7537 124.854V102.469H107.138L84.7537 124.854Z" fill="#939598"/>
<path d="M107.138 124.854V147.247H84.7537L107.138 124.854Z" fill="#58595B"/>
<path d="M84.7537 147.247V124.854H107.138L84.7537 147.247Z" fill="#E6E7E8"/>
<path d="M107.138 147.247V169.64H84.7537L107.138 147.247Z" fill="#F1F2F2"/>
<path d="M84.7537 169.64V147.247H107.138L84.7537 169.64Z" fill="#D1D3D4"/>
<path d="M107.138 169.639V192.032H84.7537L107.138 169.639Z" fill="#808285"/>
<path d="M84.7537 192.032V169.639H107.138L84.7537 192.032Z" fill="#6D6E71"/>
<path d="M129.531 -9.49365V12.899H107.138L129.531 -9.49365Z" fill="#A7A9AC"/>
<path d="M107.138 12.899V-9.49365H129.531L107.138 12.899Z" fill="#E6E7E8"/>
<path d="M129.531 12.8994V35.292H107.138L129.531 12.8994Z" fill="#BCBEC0"/>
<path d="M107.138 35.292V12.8994H129.531L107.138 35.292Z" fill="#E6E7E8"/>
<path d="M129.531 35.2916V57.6842H107.138L129.531 35.2916Z" fill="#808285"/>
<path d="M107.138 57.6842V35.2916H129.531L107.138 57.6842Z" fill="#6D6E71"/>
<path d="M129.531 57.6843V80.0769H107.138L129.531 57.6843Z" fill="#6D6E71"/>
<path d="M107.138 80.0769V57.6843H129.531L107.138 80.0769Z" fill="#D1D3D4"/>
<path d="M129.531 80.0774V102.47H107.138L129.531 80.0774Z" fill="#E6E7E8"/>
<path d="M107.138 102.47V80.0774H129.531L107.138 102.47Z" fill="#6D6E71"/>
<path d="M129.531 102.469V124.854H107.138L129.531 102.469Z" fill="#A7A9AC"/>
<path d="M107.138 124.854V102.469H129.531L107.138 124.854Z" fill="#D1D3D4"/>
<path d="M129.531 124.854V147.247H107.138L129.531 124.854Z" fill="#F1F2F2"/>
<path d="M107.138 147.247V124.854H129.531L107.138 147.247Z" fill="#58595B"/>
<path d="M129.531 147.247V169.64H107.138L129.531 147.247Z" fill="#E6E7E8"/>
<path d="M107.138 169.64V147.247H129.531L107.138 169.64Z" fill="#D1D3D4"/>
<path d="M129.531 169.639V192.032H107.138L129.531 169.639Z" fill="#A7A9AC"/>
<path d="M107.138 192.032V169.639H129.531L107.138 192.032Z" fill="#BCBEC0"/>
</g>
</g>
</g>
</svg>
