<svg width="21" height="21" viewBox="0 0 21 21" fill="none" xmlns="http://www.w3.org/2000/svg">
    <path
        d="M14.875 6.125H18.375V7H14.875V6.125ZM14.875 9.625H18.375V8.75H14.875V9.625ZM14.875 12.25H18.375V11.375H14.875V12.25ZM14.875 14.875H18.375V14H14.875V14.875ZM21 4.8125V18.375H0V4.8125C0 3.60675 0.980875 2.625 2.1875 2.625H18.8125C20.0191 2.625 21 3.60675 21 4.8125ZM20.125 4.8125C20.125 4.08887 19.5361 3.5 18.8125 3.5H2.1875C1.46387 3.5 0.875 4.08887 0.875 4.8125V17.5H20.125V4.8125ZM13.125 10.5C13.125 13.3954 10.7704 15.75 7.875 15.75C4.97962 15.75 2.625 13.3954 2.625 10.5C2.625 7.60462 4.97962 5.25 7.875 5.25C10.7704 5.25 13.125 7.60462 13.125 10.5ZM7.875 14.875C8.92325 14.875 9.8735 14.4891 10.6278 13.8722L7.4375 10.682V6.16963C5.2325 6.39275 3.5 8.23812 3.5 10.5C3.5 12.9124 5.46263 14.875 7.875 14.875ZM12.25 10.5C12.25 8.23725 10.5175 6.39275 8.3125 6.16963V10.3189L11.2472 13.2536C11.8641 12.4994 12.25 11.5491 12.25 10.5009V10.5Z"
        fill="#125D72" />
</svg>
