<svg width="24" height="24" viewBox="0 0 24 24" fill="none" xmlns="http://www.w3.org/2000/svg">
<g clip-path="url(#clip0_227_721)">
<path d="M21.6764 9.0799L19.922 6.16703L11.5001 8.9784L3.06424 6.1679L1.32736 9.05103C0.967735 9.6504 0.901235 10.3697 1.14361 11.025C1.38511 11.6804 1.90486 12.1827 2.56811 12.404L2.74661 12.4635L2.74048 18.109L11.487 21.0245L20.2326 18.109L20.2396 12.4644L20.4522 12.3935C21.1067 12.1757 21.6195 11.6795 21.8584 11.0312C22.0981 10.3845 22.0316 9.67315 21.6764 9.08078V9.0799ZM1.96436 10.7205C1.81474 10.3154 1.85586 9.8709 2.07811 9.50078L3.45274 7.21878L10.8334 9.6784L9.12886 12.5195C8.79024 13.0839 8.11736 13.3342 7.49523 13.1233L2.84636 11.5737C2.43599 11.4372 2.11486 11.1265 1.96524 10.7205H1.96436ZM11.0495 19.9553L3.61549 17.4773L3.62161 12.754L7.21786 13.9528C7.45761 14.0324 7.70261 14.0709 7.94323 14.0709C8.72111 14.0709 9.45786 13.6693 9.87874 12.9675L11.0556 11.0075L11.0504 19.9544L11.0495 19.9553ZM19.3576 17.4773L11.9245 19.9544L11.9297 11.0049L13.1075 12.9684C13.6596 13.8863 14.7542 14.2888 15.7692 13.9528L19.3637 12.754L19.3567 17.4764L19.3576 17.4773ZM21.0385 10.7267C20.8915 11.1239 20.5774 11.4284 20.1757 11.5614L15.4927 13.1224C14.8706 13.3333 14.1977 13.0813 13.8582 12.5187L12.1564 9.6819L19.5352 7.21965L20.9274 9.53053C21.1452 9.89453 21.1864 10.3303 21.0394 10.7275L21.0385 10.7267ZM6.16699 5.35678L5.23861 5.0479L10.2095 0.0770264L12.6945 2.56203L13.6876 1.5689L17.3119 5.19315L16.3844 5.5029L13.6876 2.80615L9.89449 6.59928L8.96611 6.2904L12.075 3.18153L10.2086 1.31515L6.16699 5.35678Z" fill="#125D72"/>
</g>
<defs>
<clipPath id="clip0_227_721">
<rect width="21" height="21" fill="white" transform="translate(1)"/>
</clipPath>
</defs>
</svg>
