<svg width="21" height="21" viewBox="0 0 21 21" fill="none" xmlns="http://www.w3.org/2000/svg">
<g clip-path="url(#clip0_475_3253)">
<g clip-path="url(#clip1_475_3253)">
<path d="M-3.82475e-08 0.874999C-1.70966e-08 0.391124 0.392 -9.00804e-07 0.875 -8.79692e-07L20.125 -3.82475e-08C20.608 -1.71349e-08 21 0.391125 21 0.875C21 1.35888 20.608 1.75 20.125 1.75L0.875 1.75C0.392 1.75 -5.93983e-08 1.35887 -3.82475e-08 0.874999ZM0.874999 21L20.125 21C20.608 21 21 20.6089 21 20.125C21 19.6411 20.608 19.25 20.125 19.25L0.874999 19.25C0.391999 19.25 -8.58541e-07 19.6411 -8.79692e-07 20.125C-9.00843e-07 20.6089 0.391999 21 0.874999 21ZM0.874999 14.875L20.125 14.875C20.608 14.875 21 14.4839 21 14C21 13.5161 20.608 13.125 20.125 13.125L0.874999 13.125C0.392 13.125 -5.90809e-07 13.5161 -6.11959e-07 14C-6.3311e-07 14.4839 0.392 14.875 0.874999 14.875ZM0.875 7.875L20.125 7.875C20.608 7.875 21 7.48387 21 7C21 6.51613 20.608 6.125 20.125 6.125L0.875 6.125C0.392 6.125 -2.84829e-07 6.51612 -3.0598e-07 7C-3.27131e-07 7.48387 0.392 7.875 0.875 7.875Z" fill="white"/>
</g>
</g>
<defs>
<clipPath id="clip0_475_3253">
<rect width="21" height="21" fill="white" transform="translate(21) rotate(90)"/>
</clipPath>
<clipPath id="clip1_475_3253">
<rect width="21" height="21" fill="white" transform="translate(21) rotate(90)"/>
</clipPath>
</defs>
</svg>
