<svg width="21" height="21" viewBox="0 0 21 21" fill="none" xmlns="http://www.w3.org/2000/svg">
<path d="M20.8599 12.7487L19.2849 7.105C18.5324 4.3925 16.2836 2.38875 13.5886 1.88125C13.5886 1.88125 13.5799 1.86375 13.5711 1.86375C12.2236 0.665 10.4911 0 8.70614 0C5.24989 0 2.30989 2.35375 1.56614 5.71375L0.0611391 11.1912C-0.183861 12.3112 0.0786391 13.4575 0.796139 14.35C1.51364 15.2425 2.57239 15.75 3.71864 15.75H4.10364C4.17364 15.8638 4.23489 15.9862 4.32239 16.1C5.03989 16.9925 6.09864 17.5 7.24489 17.5H8.65364C8.69739 19.4338 10.2811 21 12.2236 21C14.1661 21 15.7499 19.4338 15.7936 17.5H17.2549C18.4361 17.5 19.5211 16.9575 20.2386 16.0212C20.9474 15.085 21.1836 13.8862 20.8599 12.7487ZM1.47864 13.7987C0.936139 13.1163 0.726139 12.2325 0.909889 11.4012L2.41489 5.92375C3.07989 2.94875 5.66114 0.875 8.70614 0.875C9.85239 0.875 10.9724 1.19 11.9524 1.75875C8.61864 1.88125 5.81864 4.2 5.09239 7.455L3.58739 12.9325C3.43864 13.5887 3.49114 14.245 3.69239 14.8663C2.82614 14.8663 2.02114 14.4725 1.47864 13.79V13.7987ZM12.2236 20.125C10.7624 20.125 9.57239 18.9525 9.52864 17.5H14.9186C14.8749 18.9525 13.6849 20.125 12.2236 20.125ZM19.5386 15.4962C18.9961 16.2137 18.1561 16.625 17.2549 16.625H7.24489C6.36989 16.625 5.55614 16.2313 5.00489 15.5487C4.46239 14.8663 4.25239 13.9825 4.43614 13.1512L5.94114 7.67375C6.60614 4.69875 9.18739 2.625 12.2324 2.625C15.1199 2.625 17.6661 4.5675 18.4449 7.34125L20.0199 12.985C20.2649 13.86 20.0899 14.77 19.5386 15.4875V15.4962Z" fill="white"/>
</svg>
