<svg width="21" height="21" viewBox="0 0 21 21" fill="none" xmlns="http://www.w3.org/2000/svg">
<path d="M18.8125 11.375H12.6875C11.4809 11.375 10.5 12.3559 10.5 13.5625V21H21V13.5625C21 12.3559 20.0191 11.375 18.8125 11.375ZM20.125 20.125H11.375V13.5625C11.375 12.8389 11.9639 12.25 12.6875 12.25H18.8125C19.5361 12.25 20.125 12.8389 20.125 13.5625V20.125ZM14 14H17.5V14.875H14V14ZM8.61963 5.5615L5.67788 8.45337C5.488 8.64325 5.23163 8.75 4.95862 8.75C4.68562 8.75 4.43013 8.64325 4.23675 8.45075L2.68537 6.95012L3.2935 6.321L4.85013 7.82687C4.90525 7.88112 5.01288 7.88112 5.06187 7.83213L8.00625 4.93762L8.61963 5.5615ZM8.61963 9.9365L5.67788 12.8284C5.488 13.0191 5.23163 13.125 4.95862 13.125C4.68562 13.125 4.43013 13.0191 4.23675 12.8258L2.68625 11.3251L3.29438 10.696L4.851 12.2019C4.93762 12.2894 4.98837 12.2824 5.06187 12.2071L8.00625 9.31262L8.61963 9.9365ZM13.125 7.875H9.625V7H13.125V7.875ZM5.061 16.5821L8.00537 13.6876L8.61875 14.3115L5.677 17.2034C5.48712 17.3941 5.23075 17.5 4.95775 17.5C4.68475 17.5 4.42925 17.3941 4.23588 17.2008L2.68537 15.6992L3.2935 15.0701L4.85013 16.5769C4.93675 16.6635 4.9875 16.6574 5.061 16.5821ZM9.1875 0.875H6.5625C5.83887 0.875 5.25 1.46387 5.25 2.1875V2.625H0.875V18.8125C0.875 19.5361 1.46387 20.125 2.1875 20.125H8.75V21H2.1875C0.98175 21 0 20.0191 0 18.8125V1.75H4.41875C4.62175 0.7525 5.5055 0 6.5625 0H9.1875C10.2445 0 11.1274 0.7525 11.3313 1.75H15.75V9.625H14.875V2.625H10.5V2.1875C10.5 1.46387 9.91113 0.875 9.1875 0.875Z" fill="#125D72"/>
</svg>
