<svg width="41" height="38" viewBox="0 0 41 38" fill="none" xmlns="http://www.w3.org/2000/svg">
<g clip-path="url(#clip0_449_1588)">
<path d="M15.0833 23.1512H25.0833V13.8907H15.0833V23.1512ZM16.7499 15.4341H23.4166V21.6078H16.7499V15.4341ZM15.0833 10.8039H25.0833V1.54346H15.0833V10.8039ZM16.7499 3.08687H23.4166V9.2605H16.7499V3.08687ZM15.0833 35.4984H25.0833V26.238H15.0833V35.4984ZM16.7499 27.7814H23.4166V33.955H16.7499V27.7814ZM12.8566 30.328C13.6683 31.0781 13.6683 32.3005 12.8566 33.0521L8.44992 37.1329L7.27159 36.0417L11.1916 32.4116H4.24992C1.95325 32.4116 0.083252 30.6815 0.083252 28.5531V20.8361C0.083252 18.7092 1.95325 16.9775 4.24992 16.9775H13.4166V18.521H4.24992C2.87159 18.521 1.74992 19.5597 1.74992 20.8361V28.5531C1.74992 29.8295 2.87159 30.8682 4.24992 30.8682H11.0816L7.27159 27.34L8.44992 26.2488L12.8566 30.328ZM28.4166 15.4341H26.7499V13.8907H28.4166C29.3366 13.8907 30.0833 13.1977 30.0833 12.3473C30.0833 11.4969 29.3366 10.8039 28.4166 10.8039H26.7499V9.2605H28.4166C30.2549 9.2605 31.7499 10.6449 31.7499 12.3473C31.7499 14.0497 30.2549 15.4341 28.4166 15.4341ZM36.5166 14.0466L39.7499 15.7953L37.2299 19.7943L34.0016 18.0487C33.1082 18.8034 32.0583 19.3637 30.9132 19.697V23.1512H26.7466V21.6078H29.2466V18.4731C31.0449 18.2647 32.6216 17.3943 33.6799 16.1318L36.6299 17.6813L37.4699 16.3494L34.5316 14.8044C34.8849 14.0512 35.0816 13.2209 35.0816 12.3473C35.0816 11.4984 34.8966 10.6897 34.5616 9.95503L37.4699 8.34526L36.6299 7.0133L33.7266 8.61998C32.6683 7.32815 31.0716 6.43297 29.2466 6.22307V3.08841H26.7466V1.545H30.9132V4.99915C32.0583 5.33252 33.1049 5.89278 34.0016 6.64597L37.2299 4.90191L39.7499 8.90089L36.5166 10.6496C36.6733 11.2422 36.7499 11.804 36.7499 12.3489C36.7499 12.8937 36.6733 13.4539 36.5166 14.0482V14.0466Z" fill="#125D72"/>
</g>
<defs>
<clipPath id="clip0_449_1588">
<rect width="40" height="37.0418" fill="white" transform="translate(0.083252)"/>
</clipPath>
</defs>
</svg>
