<svg width="21" height="21" viewBox="0 0 21 21" fill="none" xmlns="http://www.w3.org/2000/svg">
<g clip-path="url(#clip0_227_638)">
<path d="M21 9.625V3.9375C21 2.73088 20.0182 1.75 18.8125 1.75H15.9311L14.1811 0H10.9375C9.73175 0 8.75 0.980875 8.75 2.1875V4.375H0.875V0H0V14.4375C0 15.6441 0.98175 16.625 2.1875 16.625H8.75V21H21V15.3125C21 14.1059 20.0182 13.125 18.8125 13.125H15.9311L14.1811 11.375H10.9375C9.73175 11.375 8.75 12.3559 8.75 13.5625V15.75H2.1875C1.46387 15.75 0.875 15.1611 0.875 14.4375V5.25H8.75V9.625H21ZM9.625 2.1875C9.625 1.46387 10.2139 0.875 10.9375 0.875H13.8189L15.5689 2.625H18.8125C19.5361 2.625 20.125 3.21388 20.125 3.9375V8.75H9.625V2.1875ZM9.625 13.5625C9.625 12.8389 10.2139 12.25 10.9375 12.25H13.8189L15.5689 14H18.8125C19.5361 14 20.125 14.5889 20.125 15.3125V20.125H9.625V13.5625Z" fill="#125D72"/>
</g>
<defs>
<clipPath id="clip0_227_638">
<rect width="21" height="21" fill="white"/>
</clipPath>
</defs>
</svg>
