<svg width="21" height="21" viewBox="0 0 21 21" fill="none" xmlns="http://www.w3.org/2000/svg">
<path d="M20.6762 9.0799L18.9219 6.16703L10.5 8.9784L2.06411 6.1679L0.327238 9.05103C-0.032387 9.6504 -0.098887 10.3697 0.143488 11.025C0.384988 11.6804 0.904738 12.1827 1.56799 12.404L1.74649 12.4635L1.74036 18.109L10.4869 21.0245L19.2325 18.109L19.2395 12.4644L19.4521 12.3935C20.1066 12.1757 20.6194 11.6795 20.8582 11.0312C21.098 10.3845 21.0315 9.67315 20.6762 9.08078V9.0799ZM0.964238 10.7205C0.814613 10.3154 0.855738 9.8709 1.07799 9.50078L2.45261 7.21878L9.83324 9.6784L8.12874 12.5195C7.79011 13.0839 7.11724 13.3342 6.49511 13.1233L1.84624 11.5737C1.43586 11.4372 1.11474 11.1265 0.965113 10.7205H0.964238ZM10.0494 19.9553L2.61536 17.4773L2.62149 12.754L6.21774 13.9528C6.45749 14.0324 6.70249 14.0709 6.94311 14.0709C7.72099 14.0709 8.45774 13.6693 8.87861 12.9675L10.0555 11.0075L10.0502 19.9544L10.0494 19.9553ZM18.3575 17.4773L10.9244 19.9544L10.9296 11.0049L12.1074 12.9684C12.6595 13.8863 13.7541 14.2888 14.7691 13.9528L18.3636 12.754L18.3566 17.4764L18.3575 17.4773ZM20.0384 10.7267C19.8914 11.1239 19.5772 11.4284 19.1756 11.5614L14.4926 13.1224C13.8705 13.3333 13.1976 13.0813 12.8581 12.5187L11.1562 9.6819L18.5351 7.21965L19.9272 9.53053C20.1451 9.89453 20.1862 10.3303 20.0392 10.7275L20.0384 10.7267ZM5.16686 5.35678L4.23849 5.0479L9.20936 0.0770264L11.6944 2.56203L12.6875 1.5689L16.3117 5.19315L15.3842 5.5029L12.6875 2.80615L8.89436 6.59928L7.96599 6.2904L11.0749 3.18153L9.20849 1.31515L5.16686 5.35678Z" fill="#125D72"/>
</svg>
