<svg width="41" height="38" viewBox="0 0 41 38" fill="none" xmlns="http://www.w3.org/2000/svg">
<g clip-path="url(#clip0_680_4962)">
<path d="M40.0834 36.3071C40.0834 36.7331 39.7084 37.0788 39.25 37.0788L5.91671 37.0418C2.70171 37.0418 0.083374 34.6186 0.083374 31.6399V0.771704C0.083374 0.345723 0.456707 0 0.916707 0C1.37671 0 1.75004 0.345723 1.75004 0.771704V31.6399C1.75004 33.7667 3.62004 35.4984 5.91671 35.4984L39.2517 35.5354C39.71 35.5354 40.0834 35.8827 40.0834 36.3071ZM8.41671 19.3296V30.0965C8.41671 30.5224 8.79004 30.8682 9.25004 30.8682C9.71004 30.8682 10.0834 30.5224 10.0834 30.0965V19.3296C10.0834 18.9037 9.71004 18.5579 9.25004 18.5579C8.79004 18.5579 8.41671 18.9037 8.41671 19.3296ZM16.75 16.2428V30.0965C16.75 30.5224 17.1234 30.8682 17.5834 30.8682C18.0434 30.8682 18.4167 30.5224 18.4167 30.0965V16.2428C18.4167 15.8168 18.0434 15.4711 17.5834 15.4711C17.1234 15.4711 16.75 15.8168 16.75 16.2428ZM25.0834 20.8731V30.0965C25.0834 30.5224 25.4567 30.8682 25.9167 30.8682C26.3767 30.8682 26.75 30.5224 26.75 30.0965V20.8731C26.75 20.4471 26.3767 20.1014 25.9167 20.1014C25.4567 20.1014 25.0834 20.4471 25.0834 20.8731ZM33.4167 14.6624V30.0965C33.4167 30.5224 33.79 30.8682 34.25 30.8682C34.71 30.8682 35.0834 30.5224 35.0834 30.0965V14.6624C35.0834 14.2364 34.71 13.8907 34.25 13.8907C33.79 13.8907 33.4167 14.2364 33.4167 14.6624ZM7.58337 13.8907C7.79671 13.8907 8.01004 13.815 8.17337 13.6653L15.63 6.76013C16.2484 6.18752 17.2534 6.18752 17.8717 6.76013L22.785 11.3116C24.055 12.4831 26.115 12.4831 27.385 11.3116L38.1734 1.31807C38.4984 1.01711 38.4984 0.527846 38.1734 0.226881C37.8484 -0.0740836 37.32 -0.0740836 36.995 0.226881L26.205 10.2189C25.5867 10.7915 24.58 10.7915 23.9617 10.2189L19.0484 5.66894C17.78 4.49441 15.7184 4.49441 14.45 5.66894L6.99337 12.5741C6.66837 12.8751 6.66837 13.3644 6.99337 13.6653C7.15671 13.8166 7.37004 13.8907 7.58337 13.8907Z" fill="#125D72"/>
</g>
<defs>
<clipPath id="clip0_680_4962">
<rect width="40" height="37.0418" fill="white" transform="translate(0.083374)"/>
</clipPath>
</defs>
</svg>
