<svg width="19" height="19" viewBox="0 0 19 19" fill="none" xmlns="http://www.w3.org/2000/svg">
<path d="M18.5779 5.67382C18.0565 5.67498 17.5352 5.6764 17.0138 5.67777C15.8412 3.04861 13.5395 1.14953 10.6322 0.693997C7.39296 0.186583 4.2927 1.69093 2.44413 4.33762C1.62305 5.51295 3.55274 6.61349 4.3669 5.44782C6.90233 1.81802 12.3158 2.14604 14.5405 5.6839C14.0589 5.68506 13.5771 5.68627 13.0956 5.68743C12.9608 5.68764 12.865 5.74781 12.8058 5.83231C12.7091 5.93612 12.6722 6.0877 12.7736 6.24483C13.6908 7.66805 14.6082 9.09149 15.5256 10.5147C15.6797 10.7539 16.0125 10.752 16.1652 10.5123C17.0753 9.08458 17.9856 7.65681 18.8956 6.22883C19.0463 5.99276 18.8479 5.67323 18.5779 5.67382Z" fill="white"/>
<path d="M14.6533 13.4877C12.1376 17.0899 6.78731 16.7946 4.53118 13.3341C4.99284 13.333 5.45449 13.3318 5.91615 13.3306C6.05057 13.3302 6.1461 13.2706 6.20548 13.1863C6.30238 13.0827 6.33948 12.9307 6.23804 12.7732C5.32107 11.35 4.40367 9.92634 3.48654 8.50332C3.33258 8.26413 2.9996 8.26608 2.84686 8.5057C1.9368 9.93346 1.02632 11.3612 0.116044 12.7892C-0.034533 13.0254 0.163809 13.345 0.433824 13.3444C0.971479 13.343 1.50887 13.3416 2.04653 13.3402C3.23056 15.9262 5.51213 17.7911 8.38861 18.2417C11.6278 18.7491 14.7281 17.2448 16.5763 14.5981C17.3971 13.4223 15.4672 12.322 14.6533 13.4877Z" fill="white"/>
</svg>
