<svg width="41" height="38" viewBox="0 0 41 38" fill="none" xmlns="http://www.w3.org/2000/svg">
<g clip-path="url(#clip0_449_917)">
<path d="M1.7736 3.85852C1.7736 2.57749 2.89027 1.54341 4.2736 1.54341H18.4403V10.8039H28.4403V17.9653L30.1069 16.4219V9.70804L19.6236 0H4.2736C1.9736 0 0.106934 1.72862 0.106934 3.85852V33.955H15.1069V32.4116H1.7736V3.85852ZM20.1069 2.63923L27.2569 9.26045H20.1069V2.63923ZM38.8903 18.1196C37.3236 16.6688 34.5736 16.6688 32.9903 18.1196L18.4403 31.5936V37.0572H24.3403L38.8903 23.5833C39.6736 22.8579 40.1069 21.8855 40.1069 20.8514C40.1069 19.8174 39.6736 18.845 38.8903 18.1196ZM37.7069 22.4875L23.6403 35.5138H20.1069V32.2418L34.1736 19.2154C35.1236 18.3357 36.7569 18.3357 37.7069 19.2154C38.1736 19.6476 38.4403 20.2341 38.4403 20.8514C38.4403 21.4688 38.1736 22.0553 37.7069 22.4875ZM23.4403 20.0797C23.4403 18.382 21.9403 16.9929 20.1069 16.9929C18.2736 16.9929 16.7736 18.382 16.7736 20.0797C16.7736 21.3299 17.7403 23.2129 19.1403 24.7563C18.1069 25.6206 16.7736 26.2534 15.1069 26.2534C13.7736 26.2534 12.4736 25.6514 11.3069 24.7254C13.6569 22.2559 15.1069 18.8759 15.1069 16.9929C15.1069 14.4463 12.8569 12.3627 10.1069 12.3627C7.35693 12.3627 5.10693 14.4463 5.10693 16.9929C5.10693 18.8759 6.55693 22.2405 8.90693 24.7254C7.74027 25.6514 6.44027 26.2534 5.10693 26.2534V27.7968C6.95693 27.7968 8.65693 27.0096 10.1069 25.8367C11.5569 27.0096 13.2569 27.7968 15.1069 27.7968C20.6069 27.7968 23.4403 22.3949 23.4403 20.0797ZM6.7736 16.9929C6.7736 15.2952 8.2736 13.9061 10.1069 13.9061C11.9403 13.9061 13.4403 15.2952 13.4403 16.9929C13.4403 18.6907 12.0903 21.5151 10.1069 23.6141C8.1236 21.5151 6.7736 18.6752 6.7736 16.9929ZM18.4403 20.0797C18.4403 19.2309 19.1903 18.5363 20.1069 18.5363C21.0236 18.5363 21.7736 19.2309 21.7736 20.0797C21.7736 20.7743 21.2903 22.2559 20.2569 23.5833C19.1236 22.2714 18.4403 20.8051 18.4403 20.0797Z" fill="#125D72"/>
</g>
<defs>
<clipPath id="clip0_449_917">
<rect width="40" height="37.0418" fill="white" transform="translate(0.106934)"/>
</clipPath>
</defs>
</svg>
