<svg width="21" height="21" viewBox="0 0 21 21" fill="none" xmlns="http://www.w3.org/2000/svg">
<path d="M17.6995 13.6761C18.1309 12.7031 18.375 11.6295 18.375 10.499C18.375 9.0474 17.9734 7.69115 17.2856 6.52215C17.4291 6.5414 17.5726 6.56152 17.7188 6.56152C19.5282 6.56152 21 5.08977 21 3.28027C21 1.47077 19.5282 -0.000976562 17.7188 -0.000976562C15.9093 -0.000976562 14.4375 1.47077 14.4375 3.28027C14.4375 3.42727 14.4594 3.57077 14.4786 3.71515C13.3096 3.02652 11.9516 2.62402 10.5 2.62402C9.18312 2.62402 7.94325 2.95302 6.85212 3.52615C6.49337 2.48052 5.50462 1.74902 4.375 1.74902C2.92775 1.74902 1.75 2.92677 1.75 4.37402C1.75 5.50365 2.4815 6.4924 3.52713 6.85115C2.95312 7.94315 2.625 9.18302 2.625 10.499C2.625 11.1981 2.72563 11.8728 2.89713 12.5185C1.17075 13.1345 0 14.748 0 16.624C0 19.0364 1.96263 20.999 4.375 20.999C6.25187 20.999 7.8645 19.8274 8.4805 18.1019C9.12625 18.2734 9.80087 18.374 10.5 18.374C11.6305 18.374 12.7041 18.1299 13.6771 17.6985C14.0577 19.0985 15.3466 20.124 16.8438 20.124C18.6532 20.124 20.125 18.6514 20.125 16.8428C20.125 15.3456 19.0995 14.0568 17.6995 13.6761ZM15.7159 4.60852C15.4516 4.21127 15.3125 3.75365 15.3125 3.28027C15.3125 1.9529 16.3914 0.874023 17.7188 0.874023C19.0461 0.874023 20.125 1.9529 20.125 3.28027C20.125 4.60765 19.0461 5.68652 17.7188 5.68652C17.2454 5.68652 16.7878 5.5474 16.3905 5.28315C16.3669 5.2569 16.3389 5.23415 16.3153 5.2079C16.1481 5.02415 15.9723 4.84827 15.7885 4.68115C15.7631 4.6584 15.7421 4.63127 15.7168 4.6094L15.7159 4.60852ZM2.625 4.37402C2.625 3.4089 3.40987 2.62402 4.375 2.62402C5.1905 2.62402 5.90013 3.1954 6.0795 3.9864C5.25787 4.54552 4.54738 5.2569 3.98738 6.07852C3.19638 5.89915 2.625 5.18952 2.625 4.37402ZM4.375 20.124C2.44475 20.124 0.875 18.5543 0.875 16.624C0.875 15.1321 1.79987 13.8468 3.16663 13.3471C3.96637 15.399 5.6 17.0326 7.65188 17.8324C7.15225 19.1983 5.86775 20.124 4.375 20.124ZM3.5 10.499C3.5 6.6394 6.64038 3.49902 10.5 3.49902C14.3596 3.49902 17.5 6.6394 17.5 10.499C17.5 14.3586 14.3596 17.499 10.5 17.499C6.64038 17.499 3.5 14.3586 3.5 10.499ZM16.8438 19.249C15.6791 19.249 14.6956 18.3994 14.4883 17.2776C15.6389 16.5986 16.5996 15.637 17.2786 14.4873C18.4004 14.6946 19.25 15.6773 19.25 16.8428C19.25 18.1701 18.1702 19.249 16.8438 19.249ZM11.375 13.124C11.375 13.607 10.983 13.999 10.5 13.999C10.017 13.999 9.625 13.607 9.625 13.124C9.625 12.641 10.017 12.249 10.5 12.249C10.983 12.249 11.375 12.641 11.375 13.124ZM13.2501 9.72115C13.4374 9.8734 13.4671 10.149 13.3149 10.3371C13.1626 10.5235 12.8879 10.5541 12.6989 10.4019C11.4231 9.36852 9.57337 9.37027 8.30025 10.4019C8.21887 10.4675 8.12175 10.4999 8.0255 10.4999C7.89775 10.4999 7.77175 10.4448 7.68512 10.338C7.53288 10.1508 7.56175 9.87515 7.749 9.7229C9.34237 8.43052 11.655 8.43052 13.2501 9.7229V9.72115ZM12.075 11.024C12.2684 11.1693 12.3069 11.4431 12.1616 11.6365C12.0759 11.7511 11.9446 11.8106 11.8116 11.8106C11.7206 11.8106 11.6279 11.7826 11.5491 11.7223C10.9305 11.2576 10.0677 11.2576 9.44913 11.7223C9.2575 11.8693 8.98188 11.8299 8.83663 11.6356C8.69137 11.4423 8.72987 11.1684 8.92325 11.0231C9.85075 10.3249 11.1475 10.3249 12.075 11.0231V11.024ZM14.2686 8.29577C14.4585 8.44452 14.4926 8.71927 14.343 8.91002C14.2564 9.02027 14.1278 9.07802 13.9983 9.07802C13.9046 9.07802 13.8092 9.0474 13.7287 8.98527C11.8265 7.4969 9.17 7.4969 7.26775 8.98527C7.077 9.13402 6.80137 9.0999 6.6535 8.9109C6.50475 8.72102 6.538 8.4454 6.72788 8.29665C8.94688 6.55977 12.0479 6.55977 14.2669 8.29665L14.2686 8.29577Z" fill="#125D72"/>
</svg>
