<svg width="40" height="40" viewBox="0 0 40 40" fill="none" xmlns="http://www.w3.org/2000/svg">
<g clip-path="url(#clip0_475_3764)">
<path d="M35.8333 21.6667H24.1667C21.8683 21.6667 20 23.535 20 25.8333V40H40V25.8333C40 23.535 38.1317 21.6667 35.8333 21.6667ZM38.3333 38.3333H21.6667V25.8333C21.6667 24.455 22.7883 23.3333 24.1667 23.3333H35.8333C37.2117 23.3333 38.3333 24.455 38.3333 25.8333V38.3333ZM26.6667 26.6667H33.3333V28.3333H26.6667V26.6667ZM16.4183 10.5933L10.815 16.1017C10.4533 16.4633 9.965 16.6667 9.445 16.6667C8.925 16.6667 8.43833 16.4633 8.07 16.0967L5.115 13.2383L6.27333 12.04L9.23833 14.9083C9.34333 15.0117 9.54833 15.0117 9.64167 14.9183L15.25 9.405L16.4183 10.5933ZM16.4183 18.9267L10.815 24.435C10.4533 24.7983 9.965 25 9.445 25C8.925 25 8.43833 24.7983 8.07 24.43L5.11667 21.5717L6.275 20.3733L9.24 23.2417C9.405 23.4083 9.50167 23.395 9.64167 23.2517L15.25 17.7383L16.4183 18.9267ZM25 15H18.3333V13.3333H25V15ZM9.64 31.585L15.2483 26.0717L16.4167 27.26L10.8133 32.7683C10.4517 33.1317 9.96333 33.3333 9.44333 33.3333C8.92333 33.3333 8.43667 33.1317 8.06833 32.7633L5.115 29.9033L6.27333 28.705L9.23833 31.575C9.40333 31.74 9.5 31.7283 9.64 31.585ZM17.5 1.66667H12.5C11.1217 1.66667 10 2.78833 10 4.16667V5H1.66667V35.8333C1.66667 37.2117 2.78833 38.3333 4.16667 38.3333H16.6667V40H4.16667C1.87 40 0 38.1317 0 35.8333V3.33333H8.41667C8.80333 1.43333 10.4867 0 12.5 0H17.5C19.5133 0 21.195 1.43333 21.5833 3.33333H30V18.3333H28.3333V5H20V4.16667C20 2.78833 18.8783 1.66667 17.5 1.66667Z" fill="#125D72"/>
</g>
<defs>
<clipPath id="clip0_475_3764">
<rect width="40" height="40" fill="white"/>
</clipPath>
</defs>
</svg>
