<svg width="120" height="93" viewBox="0 0 120 93" fill="none" xmlns="http://www.w3.org/2000/svg">
<path d="M98.6623 46.8504L102.237 46.8267L102.213 43.252L98.6386 43.2757L98.6623 46.8504Z" fill="#99BD1C"/>
<path d="M66.4869 47.0535L70.0615 47.0298L70.0378 43.4552L66.4632 43.4789L66.4869 47.0535Z" fill="#99BD1C"/>
<path d="M39.6652 47.2312L43.2399 47.2075L43.2162 43.6329L39.6415 43.6566L39.6652 47.2312Z" fill="#99BD1C"/>
<path d="M28.9312 47.3128L32.5059 47.2891L32.4822 43.7144L28.9075 43.7381L28.9312 47.3128Z" fill="#99BD1C"/>
<path d="M18.2078 47.3736L21.7825 47.3499L21.7588 43.7752L18.1841 43.7989L18.2078 47.3736Z" fill="#99BD1C"/>
<path d="M12.8436 47.4197L16.4182 47.396L16.3945 43.8214L12.8199 43.8451L12.8436 47.4197Z" fill="#99BD1C"/>
<path d="M114.716 41.5735L118.29 41.5498L118.267 37.9752L114.692 37.9989L114.716 41.5735Z" fill="#99BD1C"/>
<path d="M98.6187 41.6955L102.193 41.6711L102.169 38.0965L98.5944 38.1209L98.6187 41.6955Z" fill="#99BD1C"/>
<path d="M44.9901 42.0359L48.5647 42.0122L48.541 38.4376L44.9664 38.4613L44.9901 42.0359Z" fill="#99BD1C"/>
<path d="M38.6609 43.3043L42.2356 43.2686L42.1998 39.6938L38.6251 39.7296L38.6609 43.3043Z" fill="#99BD1C"/>
<path d="M28.9023 42.148L32.4769 42.1243L32.4532 38.5496L28.8786 38.5733L28.9023 42.148Z" fill="#99BD1C"/>
<path d="M18.1737 42.2088L21.7483 42.1851L21.7246 38.6104L18.15 38.6341L18.1737 42.2088Z" fill="#99BD1C"/>
<path d="M28.8629 36.9832L32.4375 36.9595L32.4138 33.3848L28.8392 33.4086L28.8629 36.9832Z" fill="#99BD1C"/>
<path d="M23.4986 37.0186L27.0732 36.9949L27.0495 33.4202L23.4749 33.444L23.4986 37.0186Z" fill="#99BD1C"/>
<path d="M18.134 37.0491L21.7086 37.0254L21.6849 33.4508L18.1103 33.4745L18.134 37.0491Z" fill="#99BD1C"/>
<path d="M12.7697 37.0899L16.3444 37.0662L16.3207 33.4915L12.746 33.5152L12.7697 37.0899Z" fill="#99BD1C"/>
<path d="M120.012 31.2085L123.586 31.1848L123.562 27.6102L119.988 27.6339L120.012 31.2085Z" fill="#99BD1C"/>
<path d="M114.653 31.2388L118.227 31.2151L118.204 27.6405L114.629 27.6642L114.653 31.2388Z" fill="#99BD1C"/>
<path d="M97.5598 32.3898L101.135 32.354L101.099 28.7793L97.5241 28.815L97.5598 32.3898Z" fill="#99BD1C"/>
<path d="M12.7408 31.9146L16.3154 31.8909L16.2917 28.3162L12.7171 28.3399L12.7408 31.9146Z" fill="#99BD1C"/>
<path d="M50.2515 26.511L53.8262 26.4873L53.8025 22.9127L50.2278 22.9364L50.2515 26.511Z" fill="#99BD1C"/>
<path d="M34.1518 26.6283L37.7264 26.604L37.7021 23.0294L34.1275 23.0537L34.1518 26.6283Z" fill="#99BD1C"/>
<path d="M23.4353 26.6839L27.0099 26.6602L26.9862 23.0855L23.4116 23.1092L23.4353 26.6839Z" fill="#99BD1C"/>
<path d="M18.0656 26.7195L21.6403 26.6958L21.6166 23.1212L18.0419 23.1449L18.0656 26.7195Z" fill="#99BD1C"/>
<path d="M87.7623 21.0867L91.3369 21.063L91.3132 17.4883L87.7386 17.512L87.7623 21.0867Z" fill="#99BD1C"/>
<path d="M82.3928 21.1275L85.9674 21.1038L85.9437 17.5291L82.3691 17.5528L82.3928 21.1275Z" fill="#99BD1C"/>
<path d="M50.2175 21.3462L53.7921 21.3225L53.7684 17.7479L50.1938 17.7716L50.2175 21.3462Z" fill="#99BD1C"/>
<path d="M18.0365 21.5542L21.6112 21.5305L21.5875 17.9559L18.0128 17.9796L18.0365 21.5542Z" fill="#99BD1C"/>
<path d="M1.93087 21.6774L5.50549 21.6531L5.48116 18.0785L1.90654 18.1028L1.93087 21.6774Z" fill="#99BD1C"/>
<path d="M119.909 15.7136L123.483 15.6899L123.46 12.1153L119.885 12.139L119.909 15.7136Z" fill="#99BD1C"/>
<path d="M82.3638 15.9627L85.9385 15.939L85.9148 12.3643L82.3401 12.388L82.3638 15.9627Z" fill="#99BD1C"/>
<path d="M76.9993 15.9983L80.574 15.9746L80.5503 12.4L76.9756 12.4237L76.9993 15.9983Z" fill="#99BD1C"/>
<path d="M49.0894 17.4252L52.6641 17.3894L52.6283 13.8147L49.0536 13.8504L49.0894 17.4252Z" fill="#99BD1C"/>
<path d="M34.0815 16.2934L37.6561 16.269L37.6318 12.6944L34.0572 12.7188L34.0815 16.2934Z" fill="#99BD1C"/>
<path d="M28.7257 16.3235L32.3003 16.2998L32.2766 12.7252L28.702 12.7489L28.7257 16.3235Z" fill="#99BD1C"/>
<path d="M23.3614 16.3592L26.936 16.3354L26.9123 12.7608L23.3377 12.7845L23.3614 16.3592Z" fill="#99BD1C"/>
<path d="M17.9971 16.3897L21.5718 16.366L21.5481 12.7913L17.9734 12.815L17.9971 16.3897Z" fill="#99BD1C"/>
<path d="M12.6242 16.4396L16.1989 16.4153L16.1745 12.8407L12.5999 12.865L12.6242 16.4396Z" fill="#99BD1C"/>
<path d="M1.90938 16.5015L5.48401 16.4778L5.4603 12.9031L1.88567 12.9268L1.90938 16.5015Z" fill="#99BD1C"/>
<path d="M50.1488 11.0113L53.7234 10.9875L53.6997 7.41292L50.1251 7.43663L50.1488 11.0113Z" fill="#99BD1C"/>
<path d="M28.6915 11.1536L32.2661 11.1299L32.2424 7.55525L28.6678 7.57896L28.6915 11.1536Z" fill="#99BD1C"/>
<path d="M23.323 11.2067L26.8976 11.1824L26.8733 7.60775L23.2986 7.63208L23.323 11.2067Z" fill="#99BD1C"/>
<path d="M17.9682 11.23L21.5428 11.2063L21.5191 7.63167L17.9445 7.65538L17.9682 11.23Z" fill="#99BD1C"/>
<path d="M119.835 5.39518L123.41 5.37085L123.385 1.79622L119.811 1.82056L119.835 5.39518Z" fill="#99BD1C"/>
<path d="M119.806 0.219265L123.381 0.195557L123.357 -3.37907L119.782 -3.35536L119.806 0.219265Z" fill="#99BD1C"/>
<path d="M98.3488 0.361355L101.923 0.337646L101.9 -3.23698L98.3251 -3.21327L98.3488 0.361355Z" fill="#99BD1C"/>
<path d="M92.9846 0.397L96.5592 0.373291L96.5355 -3.20134L92.9609 -3.17763L92.9846 0.397Z" fill="#99BD1C"/>
<path d="M87.6253 0.427273L91.2 0.403564L91.1762 -3.17106L87.6016 -3.14736L87.6253 0.427273Z" fill="#99BD1C"/>
<path d="M76.8966 0.503689L80.4712 0.47998L80.4475 -3.09465L76.8729 -3.07094L76.8966 0.503689Z" fill="#99BD1C"/>
<path d="M71.5324 0.539333L75.1071 0.515625L75.0833 -3.059L71.5087 -3.0353L71.5324 0.539333Z" fill="#99BD1C"/>
<path d="M33.9874 0.788113L37.562 0.764404L37.5383 -2.81022L33.9637 -2.78652L33.9874 0.788113Z" fill="#99BD1C"/>
<path d="M28.6284 0.818386L32.203 0.794678L32.1793 -2.77995L28.6047 -2.75624L28.6284 0.818386Z" fill="#99BD1C"/>
<path d="M23.2586 0.864529L26.8333 0.84082L26.8095 -2.73381L23.2349 -2.7101L23.2586 0.864529Z" fill="#99BD1C"/>
<path d="M1.79537 1.01798L5.37 0.993652L5.34566 -2.58097L1.77104 -2.55664L1.79537 1.01798Z" fill="#99BD1C"/>
<path d="M34.4351 67.5117L38.0098 67.488L37.9861 63.9134L34.4114 63.9371L34.4351 67.5117Z" fill="#99BD1C"/>
<path d="M29.0708 67.5525L32.6454 67.5288L32.6217 63.9542L29.047 63.9779L29.0708 67.5525Z" fill="#99BD1C"/>
<path d="M23.7064 67.5933L27.281 67.5696L27.2573 63.995L23.6827 64.0187L23.7064 67.5933Z" fill="#99BD1C"/>
<path d="M23.6613 62.4357L27.236 62.4114L27.2116 58.8368L23.637 58.8611L23.6613 62.4357Z" fill="#99BD1C"/>
<path d="M12.9436 62.4944L16.5182 62.4707L16.4945 58.8961L12.9199 58.9198L12.9436 62.4944Z" fill="#99BD1C"/>
<path d="M7.57918 62.5298L11.1538 62.5061L11.1301 58.9315L7.55547 58.9552L7.57918 62.5298Z" fill="#99BD1C"/>
<path d="M87.9942 57.0583L91.5688 57.0339L91.5445 53.4593L87.9699 53.4836L87.9942 57.0583Z" fill="#99BD1C"/>
<path d="M82.6363 57.0823L86.2109 57.0586L86.1872 53.484L82.6126 53.5077L82.6363 57.0823Z" fill="#99BD1C"/>
<path d="M71.9079 57.1536L75.4825 57.1299L75.4588 53.5553L71.8842 53.579L71.9079 57.1536Z" fill="#99BD1C"/>
<path d="M66.5488 57.189L70.1234 57.1653L70.0997 53.5907L66.5251 53.6144L66.5488 57.189Z" fill="#99BD1C"/>
<path d="M50.4492 57.3085L54.0238 57.2842L53.9995 53.7096L50.4248 53.7339L50.4492 57.3085Z" fill="#99BD1C"/>
<path d="M45.0915 57.3313L48.6661 57.3076L48.6424 53.733L45.0678 53.7567L45.0915 57.3313Z" fill="#99BD1C"/>
<path d="M104.089 56.94L107.663 56.9163L107.639 53.3416L104.065 53.3653L104.089 56.94Z" fill="#99BD1C"/>
<path d="M88.1503 78.7928L91.725 78.769L91.7013 75.1944L88.1266 75.2181L88.1503 78.7928Z" fill="#99BD1C"/>
<path d="M88.107 73.6396L91.6816 73.6152L91.6573 70.0406L88.0827 70.0649L88.107 73.6396Z" fill="#99BD1C"/>
<path d="M82.7517 73.6634L86.3263 73.6396L86.3026 70.065L82.728 70.0887L82.7517 73.6634Z" fill="#99BD1C"/>
<path d="M82.7022 68.5109L86.2769 68.4866L86.2525 64.9119L82.6779 64.9363L82.7022 68.5109Z" fill="#99BD1C"/>
<path d="M88.0367 63.3097L91.6113 63.2854L91.587 59.7108L88.0124 59.7351L88.0367 63.3097Z" fill="#99BD1C"/>
<path d="M82.7142 63.2939L86.2888 63.2695L86.2645 59.6949L82.6899 59.7192L82.7142 63.2939Z" fill="#99BD1C"/>
<path d="M45.0242 47.1956L48.5989 47.1719L48.5752 43.5972L45.0005 43.621L45.0242 47.1956Z" fill="#5BD312"/>
<path d="M23.567 47.3433L27.1416 47.3196L27.1179 43.745L23.5433 43.7687L23.567 47.3433Z" fill="#5BD312"/>
<path d="M2.12007 47.4856L5.6947 47.4619L5.67099 43.8873L2.09636 43.911L2.12007 47.4856Z" fill="#5BD312"/>
<path d="M50.3543 42.0056L53.929 41.9819L53.9052 38.4073L50.3306 38.431L50.3543 42.0056Z" fill="#5BD312"/>
<path d="M23.538 42.1836L27.1127 42.1599L27.089 38.5853L23.5143 38.609L23.538 42.1836Z" fill="#5BD312"/>
<path d="M2.08064 42.326L5.65527 42.3022L5.63156 38.7276L2.05694 38.7513L2.08064 42.326Z" fill="#5BD312"/>
<path d="M34.2271 36.9478L37.8018 36.9241L37.778 33.3494L34.2034 33.3732L34.2271 36.9478Z" fill="#5BD312"/>
<path d="M119.983 26.0381L123.557 26.0144L123.534 22.4398L119.959 22.4635L119.983 26.0381Z" fill="#5BD312"/>
<path d="M66.3447 26.399L69.9193 26.3752L69.8956 22.8006L66.321 22.8243L66.3447 26.399Z" fill="#5BD312"/>
<path d="M60.9803 26.4346L64.5549 26.4109L64.5312 22.8363L60.9566 22.86L60.9803 26.4346Z" fill="#5BD312"/>
<path d="M38.5112 27.8094L42.0859 27.7737L42.0502 24.199L38.4755 24.2347L38.5112 27.8094Z" fill="#5BD312"/>
<path d="M28.7942 26.6533L32.3689 26.6296L32.3452 23.055L28.7705 23.0787L28.7942 26.6533Z" fill="#5BD312"/>
<path d="M11.7367 28.0096L15.3114 27.9739L15.2757 24.3992L11.7009 24.4349L11.7367 28.0096Z" fill="#5BD312"/>
<path d="M66.3051 21.2344L69.8798 21.2107L69.8561 17.6361L66.2814 17.6598L66.3051 21.2344Z" fill="#5BD312"/>
<path d="M28.7653 21.4834L32.34 21.4597L32.3163 17.8851L28.7416 17.9088L28.7653 21.4834Z" fill="#5BD312"/>
<path d="M98.4428 15.8659L102.017 15.8416L101.993 12.2669L98.4185 12.2913L98.4428 15.8659Z" fill="#5BD312"/>
<path d="M87.7281 15.927L91.3027 15.9033L91.279 12.3287L87.7044 12.3524L87.7281 15.927Z" fill="#5BD312"/>
<path d="M39.4459 16.2568L43.0205 16.2324L42.9962 12.6578L39.4216 12.6821L39.4459 16.2568Z" fill="#5BD312"/>
<path d="M98.4227 10.6912L101.997 10.6675L101.974 7.09285L98.399 7.11656L98.4227 10.6912Z" fill="#5BD312"/>
<path d="M93.0487 10.7375L96.6233 10.7131L96.599 7.13851L93.0243 7.16284L93.0487 10.7375Z" fill="#5BD312"/>
<path d="M87.6887 10.7622L91.2633 10.7385L91.2396 7.1639L87.665 7.18761L87.6887 10.7622Z" fill="#5BD312"/>
<path d="M39.4107 11.092L42.9854 11.0676L42.961 7.493L39.3864 7.51733L39.4107 11.092Z" fill="#5BD312"/>
<path d="M17.9287 6.06497L21.5033 6.04126L21.4796 2.46663L17.905 2.49034L17.9287 6.06497Z" fill="#5BD312"/>
<path d="M12.5642 6.09524L16.1388 6.07153L16.1151 2.4969L12.5405 2.52061L12.5642 6.09524Z" fill="#5BD312"/>
<path d="M50.0638 0.694498L53.6384 0.670166L53.6141 -2.90446L50.0395 -2.88013L50.0638 0.694498Z" fill="#5BD312"/>
<path d="M44.7211 0.716824L48.2958 0.693115L48.2721 -2.88151L44.6974 -2.85781L44.7211 0.716824Z" fill="#5BD312"/>
<path d="M39.3516 0.752712L42.9263 0.729004L42.9026 -2.84566L39.3279 -2.82195L39.3516 0.752712Z" fill="#5BD312"/>
<path d="M17.8996 0.900173L21.4742 0.876465L21.4505 -2.69816L17.8759 -2.67446L17.8996 0.900173Z" fill="#5BD312"/>
<path d="M7.16561 0.971462L10.7402 0.947754L10.7165 -2.62687L7.1419 -2.60317L7.16561 0.971462Z" fill="#5BD312"/>
<path d="M34.4693 72.6817L38.0439 72.658L38.0202 69.0833L34.4456 69.107L34.4693 72.6817Z" fill="#5BD312"/>
<path d="M13.0212 72.8151L16.5958 72.792L16.5727 69.2174L12.9981 69.2405L13.0212 72.8151Z" fill="#5BD312"/>
<path d="M7.64766 72.8596L11.2223 72.8359L11.1986 69.2613L7.62395 69.285L7.64766 72.8596Z" fill="#5BD312"/>
<path d="M50.518 67.4233L54.0927 67.3989L54.0683 63.8243L50.4937 63.8486L50.518 67.4233Z" fill="#5BD312"/>
<path d="M45.1584 67.4405L48.733 67.4167L48.7093 63.8421L45.1347 63.8658L45.1584 67.4405Z" fill="#5BD312"/>
<path d="M50.4776 62.2582L54.0522 62.2339L54.0279 58.6593L50.4533 58.6836L50.4776 62.2582Z" fill="#5BD312"/>
<path d="M45.1243 62.2757L48.699 62.252L48.6753 58.6773L45.1006 58.701L45.1243 62.2757Z" fill="#5BD312"/>
<path d="M61.1844 57.2193L64.759 57.1956L64.7353 53.6209L61.1607 53.6446L61.1844 57.2193Z" fill="#5BD312"/>
<path d="M55.8134 57.2721L59.3881 57.2478L59.3637 53.6732L55.7891 53.6975L55.8134 57.2721Z" fill="#5BD312"/>
<path d="M109.411 51.7421L112.985 51.7178L112.961 48.1431L109.387 48.1675L109.411 51.7421Z" fill="#5BD312"/>
<path d="M104.065 51.7698L107.639 51.7461L107.616 48.1715L104.041 48.1952L104.065 51.7698Z" fill="#5BD312"/>
<path d="M98.6877 51.8153L102.262 51.791L102.238 48.2164L98.6634 48.2407L98.6877 51.8153Z" fill="#5BD312"/>
<path d="M98.478 21.0304L102.053 21.0061L102.028 17.4315L98.4537 17.4558L98.478 21.0304Z" fill="#24B300"/>
<path d="M82.2557 0.468044L85.8303 0.444336L85.8066 -3.13029L82.232 -3.10658L82.2557 0.468044Z" fill="#24B300"/>
<path d="M34.3957 62.3521L37.9703 62.3284L37.9466 58.7537L34.372 58.7774L34.3957 62.3521Z" fill="#24B300"/>
<path d="M93.5095 78.7571L97.0841 78.7334L97.0604 75.1588L93.4858 75.1825L93.5095 78.7571Z" fill="#24B300"/>
<path d="M93.4751 73.5921L97.0497 73.5684L97.026 69.9937L93.4513 70.0174L93.4751 73.5921Z" fill="#24B300"/>
<path d="M50.3886 47.1707L53.9633 47.147L53.9395 43.5723L50.3649 43.5961L50.3886 47.1707Z" fill="#24B300"/>
<path d="M39.4809 21.4215L43.0555 21.3972L43.0312 17.8226L39.4566 17.8469L39.4809 21.4215Z" fill="#24B300"/>
<path d="M66.2761 16.0694L69.8507 16.0457L69.827 12.471L66.2524 12.4947L66.2761 16.0694Z" fill="#24B300"/>
<path d="M12.5301 0.930447L16.1047 0.906738L16.081 -2.66789L12.5064 -2.64418L12.5301 0.930447Z" fill="#24B300"/>
</svg>
