<svg width="21" height="21" viewBox="0 0 21 21" fill="none" xmlns="http://www.w3.org/2000/svg">
<path d="M19.6875 14.875C19.6875 14.2362 19.5501 13.629 19.3025 13.0813L20.8381 12.1966L20.4015 11.4389L18.865 12.3244C18.1501 11.3321 17.031 10.6496 15.7509 10.5219V8.75H14.8759V10.5219C13.5957 10.6496 12.4757 11.3321 11.7618 12.3244L10.2253 11.4389L9.78863 12.1966L11.3243 13.0813C11.0766 13.629 10.9392 14.2362 10.9392 14.875C10.9392 15.5138 11.0766 16.121 11.3243 16.6687L9.78863 17.5534L10.2253 18.3111L11.7618 17.4256C12.4766 18.4179 13.5957 19.1004 14.8759 19.2281V21H15.7509V19.2281C17.031 19.1004 18.151 18.4179 18.865 17.4256L20.4015 18.3111L20.8381 17.5534L19.3025 16.6687C19.5501 16.121 19.6875 15.5138 19.6875 14.875ZM15.3125 18.375C13.3822 18.375 11.8125 16.8053 11.8125 14.875C11.8125 12.9447 13.3822 11.375 15.3125 11.375C17.2428 11.375 18.8125 12.9447 18.8125 14.875C18.8125 16.8053 17.2428 18.375 15.3125 18.375ZM5.6875 15.75H8.75V16.625H5.6875C4.96387 16.625 4.375 17.2139 4.375 17.9375V21H3.5V17.9375C3.5 16.7318 4.48175 15.75 5.6875 15.75ZM5.27362 7.875H2.1875C1.46387 7.875 0.875 8.46387 0.875 9.1875V12.25H0V9.1875C0 7.98175 0.98175 7 2.1875 7H6.5625C6.755 7 6.93962 7.02887 7.11725 7.07613C6.433 7.196 5.80912 7.476 5.27362 7.875ZM7.875 8.75C8.5505 8.75 9.16213 9.01338 9.62763 9.43513C9.42725 9.64513 9.24 9.8665 9.06238 10.0975C8.75 9.807 8.33438 9.625 7.875 9.625C6.90987 9.625 6.125 10.4099 6.125 11.375C6.125 12.2614 6.78912 12.9876 7.64575 13.1014C7.581 13.3831 7.5285 13.6693 7.49525 13.9615C6.22913 13.7751 5.25087 12.6919 5.25087 11.375C5.25087 9.92775 6.42863 8.75 7.87588 8.75H7.875ZM4.375 5.25C5.82225 5.25 7 4.07225 7 2.625C7 1.17775 5.82225 0 4.375 0C2.92775 0 1.75 1.17775 1.75 2.625C1.75 4.07225 2.92775 5.25 4.375 5.25ZM4.375 0.875C5.34013 0.875 6.125 1.65987 6.125 2.625C6.125 3.59013 5.34013 4.375 4.375 4.375C3.40987 4.375 2.625 3.59013 2.625 2.625C2.625 1.65987 3.40987 0.875 4.375 0.875ZM11.375 5.25C12.8223 5.25 14 4.07225 14 2.625C14 1.17775 12.8223 0 11.375 0C9.92775 0 8.75 1.17775 8.75 2.625C8.75 4.07225 9.92775 5.25 11.375 5.25ZM11.375 0.875C12.3401 0.875 13.125 1.65987 13.125 2.625C13.125 3.59013 12.3401 4.375 11.375 4.375C10.4099 4.375 9.625 3.59013 9.625 2.625C9.625 1.65987 10.4099 0.875 11.375 0.875ZM10.4764 7.875C9.87437 7.42613 9.15512 7.13913 8.37025 7.04988C8.505 7.021 8.64237 7 8.78588 7H14V7.875H10.4764Z" fill="#125D72"/>
</svg>
